<?xml version="1.0" encoding="UTF-8" standalone="no"?>
<!DOCTYPE svg PUBLIC "-//W3C//DTD SVG 1.1//EN"
 "http://www.w3.org/Graphics/SVG/1.1/DTD/svg11.dtd">
<!-- Generated by graphviz version 2.40.1 (20161225.0304)
 -->
<!-- Title: dependencies Pages: 1 -->
<svg width="947pt" height="211pt"
 viewBox="0.00 0.00 947.00 211.00" xmlns="http://www.w3.org/2000/svg" xmlns:xlink="http://www.w3.org/1999/xlink">
<g id="graph0" class="graph" transform="scale(1 1) rotate(0) translate(4 207)">
<title>dependencies</title>
<polygon fill="#ffffff" stroke="transparent" points="-4,4 -4,-207 943,-207 943,4 -4,4"/>
<text text-anchor="start" x="448.5091" y="-42.4" font-family="sans-serif" font-weight="bold" font-size="14.00" fill="#000000">Legend</text>
<polygon fill="#ffffb3" stroke="transparent" points="235.5,-10 235.5,-30 255.5,-30 255.5,-10 235.5,-10"/>
<text text-anchor="start" x="259.129" y="-15.4" font-family="sans-serif" font-size="14.00" fill="#000000"> &#160;Declarations</text>
<polygon fill="#8dd3c7" stroke="transparent" points="348.5,-10 348.5,-30 368.5,-30 368.5,-10 348.5,-10"/>
<text text-anchor="start" x="372.2251" y="-15.4" font-family="sans-serif" font-size="14.00" fill="#000000"> &#160;Module</text>
<polygon fill="#80b1d3" stroke="transparent" points="434.5,-10 434.5,-30 454.5,-30 454.5,-10 434.5,-10"/>
<text text-anchor="start" x="458.2812" y="-15.4" font-family="sans-serif" font-size="14.00" fill="#000000"> &#160;Bootstrap</text>
<polygon fill="#fdb462" stroke="transparent" points="531.5,-10 531.5,-30 551.5,-30 551.5,-10 531.5,-10"/>
<text text-anchor="start" x="555.1732" y="-15.4" font-family="sans-serif" font-size="14.00" fill="#000000"> &#160;Providers</text>
<polygon fill="#fb8072" stroke="transparent" points="627.5,-10 627.5,-30 647.5,-30 647.5,-10 627.5,-10"/>
<text text-anchor="start" x="651.2258" y="-15.4" font-family="sans-serif" font-size="14.00" fill="#000000"> &#160;Exports</text>
<g id="clust1" class="cluster">
<title>cluster_UsersModule</title>
<polygon fill="none" stroke="#000000" stroke-dasharray="1,5" points="8,-70 8,-195 931,-195 931,-70 8,-70"/>
</g>
<g id="clust2" class="cluster">
<title>cluster_UsersModule_declarations</title>
<polygon fill="none" stroke="#000000" points="164,-78 164,-130 923,-130 923,-78 164,-78"/>
</g>
<g id="clust11" class="cluster">
<title>cluster_UsersModule_providers</title>
<polygon fill="none" stroke="#000000" points="16,-78 16,-130 156,-130 156,-78 16,-78"/>
</g>
<!-- UsersComponent -->
<g id="node1" class="node">
<title>UsersComponent</title>
<polygon fill="#ffffb3" stroke="#000000" points="914.7036,-122 801.2964,-122 801.2964,-86 914.7036,-86 914.7036,-122"/>
<text text-anchor="middle" x="858" y="-99.8" font-family="Times,serif" font-size="14.00" fill="#000000">UsersComponent</text>
</g>
<!-- UsersModule -->
<g id="node6" class="node">
<title>UsersModule</title>
<polygon fill="#8dd3c7" stroke="#000000" points="524.9218,-187 521.9218,-191 500.9218,-191 497.9218,-187 433.0782,-187 433.0782,-151 524.9218,-151 524.9218,-187"/>
<text text-anchor="middle" x="479" y="-164.8" font-family="Times,serif" font-size="14.00" fill="#000000">UsersModule</text>
</g>
<!-- UsersComponent&#45;&gt;UsersModule -->
<g id="edge1" class="edge">
<title>UsersComponent&#45;&gt;UsersModule</title>
<path fill="none" stroke="#000000" d="M858,-122.2843C858,-143.3211 858,-175 858,-175 858,-175 534.7163,-175 534.7163,-175"/>
<polygon fill="#000000" stroke="#000000" points="534.7163,-171.5001 524.7163,-175 534.7162,-178.5001 534.7163,-171.5001"/>
</g>
<!-- UsersNewComponent -->
<g id="node2" class="node">
<title>UsersNewComponent</title>
<polygon fill="#ffffb3" stroke="#000000" points="783.6317,-122 644.3683,-122 644.3683,-86 783.6317,-86 783.6317,-122"/>
<text text-anchor="middle" x="714" y="-99.8" font-family="Times,serif" font-size="14.00" fill="#000000">UsersNewComponent</text>
</g>
<!-- UsersNewComponent&#45;&gt;UsersModule -->
<g id="edge2" class="edge">
<title>UsersNewComponent&#45;&gt;UsersModule</title>
<path fill="none" stroke="#000000" d="M714,-122.0225C714,-139.3734 714,-163 714,-163 714,-163 534.8682,-163 534.8682,-163"/>
<polygon fill="#000000" stroke="#000000" points="534.8683,-159.5001 524.8682,-163 534.8682,-166.5001 534.8683,-159.5001"/>
</g>
<!-- UsersListComponent -->
<g id="node3" class="node">
<title>UsersListComponent</title>
<polygon fill="#ffffb3" stroke="#000000" points="626.4818,-122 491.5182,-122 491.5182,-86 626.4818,-86 626.4818,-122"/>
<text text-anchor="middle" x="559" y="-99.8" font-family="Times,serif" font-size="14.00" fill="#000000">UsersListComponent</text>
</g>
<!-- UsersListComponent&#45;&gt;UsersModule -->
<g id="edge3" class="edge">
<title>UsersListComponent&#45;&gt;UsersModule</title>
<path fill="none" stroke="#000000" d="M508.1098,-122.1061C508.1098,-122.1061 508.1098,-140.991 508.1098,-140.991"/>
<polygon fill="#000000" stroke="#000000" points="504.6098,-140.9909 508.1098,-150.991 511.6098,-140.991 504.6098,-140.9909"/>
</g>
<!-- UsersDetailComponent -->
<g id="node4" class="node">
<title>UsersDetailComponent</title>
<polygon fill="#ffffb3" stroke="#000000" points="473.9116,-122 326.0884,-122 326.0884,-86 473.9116,-86 473.9116,-122"/>
<text text-anchor="middle" x="400" y="-99.8" font-family="Times,serif" font-size="14.00" fill="#000000">UsersDetailComponent</text>
</g>
<!-- UsersDetailComponent&#45;&gt;UsersModule -->
<g id="edge4" class="edge">
<title>UsersDetailComponent&#45;&gt;UsersModule</title>
<path fill="none" stroke="#000000" d="M453.4976,-122.1061C453.4976,-122.1061 453.4976,-140.991 453.4976,-140.991"/>
<polygon fill="#000000" stroke="#000000" points="449.9976,-140.9909 453.4976,-150.991 456.9976,-140.991 449.9976,-140.9909"/>
</g>
<!-- UsersEditComponent -->
<g id="node5" class="node">
<title>UsersEditComponent</title>
<polygon fill="#ffffb3" stroke="#000000" points="308.038,-122 171.962,-122 171.962,-86 308.038,-86 308.038,-122"/>
<text text-anchor="middle" x="240" y="-99.8" font-family="Times,serif" font-size="14.00" fill="#000000">UsersEditComponent</text>
</g>
<!-- UsersEditComponent&#45;&gt;UsersModule -->
<g id="edge5" class="edge">
<title>UsersEditComponent&#45;&gt;UsersModule</title>
<path fill="none" stroke="#000000" d="M240,-122.0225C240,-139.3734 240,-163 240,-163 240,-163 423.2012,-163 423.2012,-163"/>
<polygon fill="#000000" stroke="#000000" points="423.2012,-166.5001 433.2012,-163 423.2011,-159.5001 423.2012,-166.5001"/>
</g>
<!-- UsersService -->
<g id="node7" class="node">
<title>UsersService</title>
<ellipse fill="#fdb462" stroke="#000000" cx="86" cy="-104" rx="61.9519" ry="18"/>
<text text-anchor="middle" x="86" y="-99.8" font-family="Times,serif" font-size="14.00" fill="#000000">UsersService</text>
</g>
<!-- UsersService&#45;&gt;UsersModule -->
<g id="edge6" class="edge">
<title>UsersService&#45;&gt;UsersModule</title>
<path fill="none" stroke="#000000" d="M86,-122.2843C86,-143.3211 86,-175 86,-175 86,-175 423.1488,-175 423.1488,-175"/>
<polygon fill="#000000" stroke="#000000" points="423.1488,-178.5001 433.1488,-175 423.1487,-171.5001 423.1488,-178.5001"/>
</g>
</g>
</svg>
