<?xml version="1.0" encoding="UTF-8" standalone="no"?>
<!DOCTYPE svg PUBLIC "-//W3C//DTD SVG 1.1//EN"
 "http://www.w3.org/Graphics/SVG/1.1/DTD/svg11.dtd">
<!-- Generated by graphviz version 2.40.1 (20161225.0304)
 -->
<!-- Title: dependencies Pages: 1 -->
<svg width="4056pt" height="284pt"
 viewBox="0.00 0.00 4056.00 284.00" xmlns="http://www.w3.org/2000/svg" xmlns:xlink="http://www.w3.org/1999/xlink">
<g id="graph0" class="graph" transform="scale(1 1) rotate(0) translate(4 280)">
<title>dependencies</title>
<polygon fill="#ffffff" stroke="transparent" points="-4,4 -4,-280 4052,-280 4052,4 -4,4"/>
<text text-anchor="start" x="2003.0091" y="-42.4" font-family="sans-serif" font-weight="bold" font-size="14.00" fill="#000000">Legend</text>
<polygon fill="#ffffb3" stroke="transparent" points="1790,-10 1790,-30 1810,-30 1810,-10 1790,-10"/>
<text text-anchor="start" x="1813.629" y="-15.4" font-family="sans-serif" font-size="14.00" fill="#000000"> &#160;Declarations</text>
<polygon fill="#8dd3c7" stroke="transparent" points="1903,-10 1903,-30 1923,-30 1923,-10 1903,-10"/>
<text text-anchor="start" x="1926.7251" y="-15.4" font-family="sans-serif" font-size="14.00" fill="#000000"> &#160;Module</text>
<polygon fill="#80b1d3" stroke="transparent" points="1989,-10 1989,-30 2009,-30 2009,-10 1989,-10"/>
<text text-anchor="start" x="2012.7812" y="-15.4" font-family="sans-serif" font-size="14.00" fill="#000000"> &#160;Bootstrap</text>
<polygon fill="#fdb462" stroke="transparent" points="2086,-10 2086,-30 2106,-30 2106,-10 2086,-10"/>
<text text-anchor="start" x="2109.6732" y="-15.4" font-family="sans-serif" font-size="14.00" fill="#000000"> &#160;Providers</text>
<polygon fill="#fb8072" stroke="transparent" points="2182,-10 2182,-30 2202,-30 2202,-10 2182,-10"/>
<text text-anchor="start" x="2205.7258" y="-15.4" font-family="sans-serif" font-size="14.00" fill="#000000"> &#160;Exports</text>
<g id="clust1" class="cluster">
<title>cluster_PresentationalComponentsModule</title>
<polygon fill="none" stroke="#000000" stroke-dasharray="1,5" points="8,-70 8,-268 4040,-268 4040,-70 8,-70"/>
</g>
<g id="clust2" class="cluster">
<title>cluster_PresentationalComponentsModule_declarations</title>
<polygon fill="none" stroke="#000000" points="16,-78 16,-130 4032,-130 4032,-78 16,-78"/>
</g>
<g id="clust27" class="cluster">
<title>cluster_PresentationalComponentsModule_exports</title>
<polygon fill="none" stroke="#000000" points="252,-208 252,-260 4032,-260 4032,-208 252,-208"/>
</g>
<!-- SideMenuComponent -->
<g id="node1" class="node">
<title>SideMenuComponent</title>
<polygon fill="#ffffb3" stroke="#000000" points="4024.3795,-122 3885.6205,-122 3885.6205,-86 4024.3795,-86 4024.3795,-122"/>
<text text-anchor="middle" x="3955" y="-99.8" font-family="Times,serif" font-size="14.00" fill="#000000">SideMenuComponent</text>
</g>
<!-- PresentationalComponentsModule -->
<g id="node24" class="node">
<title>PresentationalComponentsModule</title>
<polygon fill="#8dd3c7" stroke="#000000" points="2135.6357,-187 2132.6357,-191 2111.6357,-191 2108.6357,-187 1926.3643,-187 1926.3643,-151 2135.6357,-151 2135.6357,-187"/>
<text text-anchor="middle" x="2031" y="-164.8" font-family="Times,serif" font-size="14.00" fill="#000000">PresentationalComponentsModule</text>
</g>
<!-- SideMenuComponent&#45;&gt;PresentationalComponentsModule -->
<g id="edge1" class="edge">
<title>SideMenuComponent&#45;&gt;PresentationalComponentsModule</title>
<path fill="none" stroke="#000000" d="M3931.7701,-122.1061C3931.7701,-141.3391 3931.7701,-169 3931.7701,-169 3931.7701,-169 2145.9011,-169 2145.9011,-169"/>
<polygon fill="#000000" stroke="#000000" points="2145.9012,-165.5001 2135.9011,-169 2145.9011,-172.5001 2145.9012,-165.5001"/>
</g>
<!-- FooterComponent -->
<g id="node2" class="node">
<title>FooterComponent</title>
<polygon fill="#ffffb3" stroke="#000000" points="3867.8809,-122 3750.1191,-122 3750.1191,-86 3867.8809,-86 3867.8809,-122"/>
<text text-anchor="middle" x="3809" y="-99.8" font-family="Times,serif" font-size="14.00" fill="#000000">FooterComponent</text>
</g>
<!-- FooterComponent&#45;&gt;PresentationalComponentsModule -->
<g id="edge2" class="edge">
<title>FooterComponent&#45;&gt;PresentationalComponentsModule</title>
<path fill="none" stroke="#000000" d="M3806.875,-122.2222C3806.875,-140.8285 3806.875,-167 3806.875,-167 3806.875,-167 2145.7863,-167 2145.7863,-167"/>
<polygon fill="#000000" stroke="#000000" points="2145.7864,-163.5001 2135.7863,-167 2145.7863,-170.5001 2145.7864,-163.5001"/>
</g>
<!-- HeaderComponent -->
<g id="node3" class="node">
<title>HeaderComponent</title>
<polygon fill="#ffffb3" stroke="#000000" points="3731.7437,-122 3610.2563,-122 3610.2563,-86 3731.7437,-86 3731.7437,-122"/>
<text text-anchor="middle" x="3671" y="-99.8" font-family="Times,serif" font-size="14.00" fill="#000000">HeaderComponent</text>
</g>
<!-- HeaderComponent&#45;&gt;PresentationalComponentsModule -->
<g id="edge3" class="edge">
<title>HeaderComponent&#45;&gt;PresentationalComponentsModule</title>
<path fill="none" stroke="#000000" d="M3667.375,-122.2667C3667.375,-140.5552 3667.375,-166 3667.375,-166 3667.375,-166 2145.8519,-166 2145.8519,-166"/>
<polygon fill="#000000" stroke="#000000" points="2145.8519,-162.5001 2135.8519,-166 2145.8519,-169.5001 2145.8519,-162.5001"/>
</g>
<!-- MainComponent -->
<g id="node4" class="node">
<title>MainComponent</title>
<polygon fill="#ffffb3" stroke="#000000" points="3592.3823,-122 3481.6177,-122 3481.6177,-86 3592.3823,-86 3592.3823,-122"/>
<text text-anchor="middle" x="3537" y="-99.8" font-family="Times,serif" font-size="14.00" fill="#000000">MainComponent</text>
</g>
<!-- MainComponent&#45;&gt;PresentationalComponentsModule -->
<g id="edge4" class="edge">
<title>MainComponent&#45;&gt;PresentationalComponentsModule</title>
<path fill="none" stroke="#000000" d="M3531.375,-122.002C3531.375,-139.6754 3531.375,-164 3531.375,-164 3531.375,-164 2145.9071,-164 2145.9071,-164"/>
<polygon fill="#000000" stroke="#000000" points="2145.9072,-160.5001 2135.9071,-164 2145.9071,-167.5001 2145.9072,-160.5001"/>
</g>
<!-- MainListComponent -->
<g id="node5" class="node">
<title>MainListComponent</title>
<polygon fill="#ffffb3" stroke="#000000" points="3463.161,-122 3330.839,-122 3330.839,-86 3463.161,-86 3463.161,-122"/>
<text text-anchor="middle" x="3397" y="-99.8" font-family="Times,serif" font-size="14.00" fill="#000000">MainListComponent</text>
</g>
<!-- MainListComponent&#45;&gt;PresentationalComponentsModule -->
<g id="edge5" class="edge">
<title>MainListComponent&#45;&gt;PresentationalComponentsModule</title>
<path fill="none" stroke="#000000" d="M3389.8438,-122.0336C3389.8438,-139.0597 3389.8438,-162 3389.8438,-162 3389.8438,-162 2145.6508,-162 2145.6508,-162"/>
<polygon fill="#000000" stroke="#000000" points="2145.6509,-158.5001 2135.6508,-162 2145.6508,-165.5001 2145.6509,-158.5001"/>
</g>
<!-- MainDetailComponent -->
<g id="node6" class="node">
<title>MainDetailComponent</title>
<polygon fill="#ffffb3" stroke="#000000" points="3312.5898,-122 3167.4102,-122 3167.4102,-86 3312.5898,-86 3312.5898,-122"/>
<text text-anchor="middle" x="3240" y="-99.8" font-family="Times,serif" font-size="14.00" fill="#000000">MainDetailComponent</text>
</g>
<!-- MainDetailComponent&#45;&gt;PresentationalComponentsModule -->
<g id="edge6" class="edge">
<title>MainDetailComponent&#45;&gt;PresentationalComponentsModule</title>
<path fill="none" stroke="#000000" d="M3215.1818,-122.0352C3215.1818,-138.7344 3215.1818,-161 3215.1818,-161 3215.1818,-161 2145.8284,-161 2145.8284,-161"/>
<polygon fill="#000000" stroke="#000000" points="2145.8284,-157.5001 2135.8284,-161 2145.8283,-164.5001 2145.8284,-157.5001"/>
</g>
<!-- SideMenuItemComponent -->
<g id="node7" class="node">
<title>SideMenuItemComponent</title>
<polygon fill="#ffffb3" stroke="#000000" points="3149.0365,-122 2984.9635,-122 2984.9635,-86 3149.0365,-86 3149.0365,-122"/>
<text text-anchor="middle" x="3067" y="-99.8" font-family="Times,serif" font-size="14.00" fill="#000000">SideMenuItemComponent</text>
</g>
<!-- SideMenuItemComponent&#45;&gt;PresentationalComponentsModule -->
<g id="edge7" class="edge">
<title>SideMenuItemComponent&#45;&gt;PresentationalComponentsModule</title>
<path fill="none" stroke="#000000" d="M3026.713,-122.0091C3026.713,-138.0494 3026.713,-159 3026.713,-159 3026.713,-159 2145.6768,-159 2145.6768,-159"/>
<polygon fill="#000000" stroke="#000000" points="2145.6768,-155.5001 2135.6768,-159 2145.6768,-162.5001 2145.6768,-155.5001"/>
</g>
<!-- MainDetailBlogComponent -->
<g id="node8" class="node">
<title>MainDetailBlogComponent</title>
<polygon fill="#ffffb3" stroke="#000000" points="2967.3173,-122 2794.6827,-122 2794.6827,-86 2967.3173,-86 2967.3173,-122"/>
<text text-anchor="middle" x="2881" y="-99.8" font-family="Times,serif" font-size="14.00" fill="#000000">MainDetailBlogComponent</text>
</g>
<!-- MainDetailBlogComponent&#45;&gt;PresentationalComponentsModule -->
<g id="edge8" class="edge">
<title>MainDetailBlogComponent&#45;&gt;PresentationalComponentsModule</title>
<path fill="none" stroke="#000000" d="M2840.9301,-122.2819C2840.9301,-137.9478 2840.9301,-158 2840.9301,-158 2840.9301,-158 2145.6397,-158 2145.6397,-158"/>
<polygon fill="#000000" stroke="#000000" points="2145.6397,-154.5001 2135.6397,-158 2145.6396,-161.5001 2145.6397,-154.5001"/>
</g>
<!-- MainListBlogComponent -->
<g id="node9" class="node">
<title>MainListBlogComponent</title>
<polygon fill="#ffffb3" stroke="#000000" points="2776.8878,-122 2617.1122,-122 2617.1122,-86 2776.8878,-86 2776.8878,-122"/>
<text text-anchor="middle" x="2697" y="-99.8" font-family="Times,serif" font-size="14.00" fill="#000000">MainListBlogComponent</text>
</g>
<!-- MainListBlogComponent&#45;&gt;PresentationalComponentsModule -->
<g id="edge9" class="edge">
<title>MainListBlogComponent&#45;&gt;PresentationalComponentsModule</title>
<path fill="none" stroke="#000000" d="M2658.8953,-122.1871C2658.8953,-137.1824 2658.8953,-156 2658.8953,-156 2658.8953,-156 2145.7421,-156 2145.7421,-156"/>
<polygon fill="#000000" stroke="#000000" points="2145.7421,-152.5001 2135.7421,-156 2145.742,-159.5001 2145.7421,-152.5001"/>
</g>
<!-- MainNewComponent -->
<g id="node10" class="node">
<title>MainNewComponent</title>
<polygon fill="#ffffb3" stroke="#000000" points="2598.8104,-122 2461.1896,-122 2461.1896,-86 2598.8104,-86 2598.8104,-122"/>
<text text-anchor="middle" x="2530" y="-99.8" font-family="Times,serif" font-size="14.00" fill="#000000">MainNewComponent</text>
</g>
<!-- MainNewComponent&#45;&gt;PresentationalComponentsModule -->
<g id="edge10" class="edge">
<title>MainNewComponent&#45;&gt;PresentationalComponentsModule</title>
<path fill="none" stroke="#000000" d="M2492.375,-122.1243C2492.375,-136.7832 2492.375,-155 2492.375,-155 2492.375,-155 2145.6931,-155 2145.6931,-155"/>
<polygon fill="#000000" stroke="#000000" points="2145.6932,-151.5001 2135.6931,-155 2145.6931,-158.5001 2145.6932,-151.5001"/>
</g>
<!-- MainNewBlogComponent -->
<g id="node11" class="node">
<title>MainNewBlogComponent</title>
<polygon fill="#ffffb3" stroke="#000000" points="2443.0378,-122 2278.9622,-122 2278.9622,-86 2443.0378,-86 2443.0378,-122"/>
<text text-anchor="middle" x="2361" y="-99.8" font-family="Times,serif" font-size="14.00" fill="#000000">MainNewBlogComponent</text>
</g>
<!-- MainNewBlogComponent&#45;&gt;PresentationalComponentsModule -->
<g id="edge11" class="edge">
<title>MainNewBlogComponent&#45;&gt;PresentationalComponentsModule</title>
<path fill="none" stroke="#000000" d="M2321.4266,-122.2458C2321.4266,-136.1772 2321.4266,-153 2321.4266,-153 2321.4266,-153 2145.8506,-153 2145.8506,-153"/>
<polygon fill="#000000" stroke="#000000" points="2145.8507,-149.5001 2135.8506,-153 2145.8506,-156.5001 2145.8507,-149.5001"/>
</g>
<!-- BreadcrumbsComponent -->
<g id="node12" class="node">
<title>BreadcrumbsComponent</title>
<polygon fill="#ffffb3" stroke="#000000" points="2260.9692,-122 2105.0308,-122 2105.0308,-86 2260.9692,-86 2260.9692,-122"/>
<text text-anchor="middle" x="2183" y="-99.8" font-family="Times,serif" font-size="14.00" fill="#000000">BreadcrumbsComponent</text>
</g>
<!-- BreadcrumbsComponent&#45;&gt;PresentationalComponentsModule -->
<g id="edge12" class="edge">
<title>BreadcrumbsComponent&#45;&gt;PresentationalComponentsModule</title>
<path fill="none" stroke="#000000" d="M2120.4166,-122.1061C2120.4166,-122.1061 2120.4166,-140.991 2120.4166,-140.991"/>
<polygon fill="#000000" stroke="#000000" points="2116.9166,-140.9909 2120.4166,-150.991 2123.9166,-140.991 2116.9166,-140.9909"/>
</g>
<!-- MainDetailProjectComponent -->
<g id="node13" class="node">
<title>MainDetailProjectComponent</title>
<polygon fill="#ffffb3" stroke="#000000" points="2087.2436,-122 1902.7564,-122 1902.7564,-86 2087.2436,-86 2087.2436,-122"/>
<text text-anchor="middle" x="1995" y="-99.8" font-family="Times,serif" font-size="14.00" fill="#000000">MainDetailProjectComponent</text>
</g>
<!-- MainDetailProjectComponent&#45;&gt;PresentationalComponentsModule -->
<g id="edge13" class="edge">
<title>MainDetailProjectComponent&#45;&gt;PresentationalComponentsModule</title>
<path fill="none" stroke="#000000" d="M2006.777,-122.1061C2006.777,-122.1061 2006.777,-140.991 2006.777,-140.991"/>
<polygon fill="#000000" stroke="#000000" points="2003.2771,-140.9909 2006.777,-150.991 2010.2771,-140.991 2003.2771,-140.9909"/>
</g>
<!-- MainListProjectsComponent -->
<g id="node14" class="node">
<title>MainListProjectsComponent</title>
<polygon fill="#ffffb3" stroke="#000000" points="1884.759,-122 1707.241,-122 1707.241,-86 1884.759,-86 1884.759,-122"/>
<text text-anchor="middle" x="1796" y="-99.8" font-family="Times,serif" font-size="14.00" fill="#000000">MainListProjectsComponent</text>
</g>
<!-- MainListProjectsComponent&#45;&gt;PresentationalComponentsModule -->
<g id="edge14" class="edge">
<title>MainListProjectsComponent&#45;&gt;PresentationalComponentsModule</title>
<path fill="none" stroke="#000000" d="M1831.3238,-122.2458C1831.3238,-136.1772 1831.3238,-153 1831.3238,-153 1831.3238,-153 1916.1913,-153 1916.1913,-153"/>
<polygon fill="#000000" stroke="#000000" points="1916.1914,-156.5001 1926.1913,-153 1916.1913,-149.5001 1916.1914,-156.5001"/>
</g>
<!-- MainNewProjectComponent -->
<g id="node15" class="node">
<title>MainNewProjectComponent</title>
<polygon fill="#ffffb3" stroke="#000000" points="1689.4636,-122 1512.5364,-122 1512.5364,-86 1689.4636,-86 1689.4636,-122"/>
<text text-anchor="middle" x="1601" y="-99.8" font-family="Times,serif" font-size="14.00" fill="#000000">MainNewProjectComponent</text>
</g>
<!-- MainNewProjectComponent&#45;&gt;PresentationalComponentsModule -->
<g id="edge15" class="edge">
<title>MainNewProjectComponent&#45;&gt;PresentationalComponentsModule</title>
<path fill="none" stroke="#000000" d="M1635.8985,-122.1243C1635.8985,-136.7832 1635.8985,-155 1635.8985,-155 1635.8985,-155 1916.1574,-155 1916.1574,-155"/>
<polygon fill="#000000" stroke="#000000" points="1916.1574,-158.5001 1926.1574,-155 1916.1573,-151.5001 1916.1574,-158.5001"/>
</g>
<!-- MainEditProjectComponent -->
<g id="node16" class="node">
<title>MainEditProjectComponent</title>
<polygon fill="#ffffb3" stroke="#000000" points="1494.8696,-122 1321.1304,-122 1321.1304,-86 1494.8696,-86 1494.8696,-122"/>
<text text-anchor="middle" x="1408" y="-99.8" font-family="Times,serif" font-size="14.00" fill="#000000">MainEditProjectComponent</text>
</g>
<!-- MainEditProjectComponent&#45;&gt;PresentationalComponentsModule -->
<g id="edge16" class="edge">
<title>MainEditProjectComponent&#45;&gt;PresentationalComponentsModule</title>
<path fill="none" stroke="#000000" d="M1439.3519,-122.1871C1439.3519,-137.1824 1439.3519,-156 1439.3519,-156 1439.3519,-156 1916.2472,-156 1916.2472,-156"/>
<polygon fill="#000000" stroke="#000000" points="1916.2472,-159.5001 1926.2472,-156 1916.2472,-152.5001 1916.2472,-159.5001"/>
</g>
<!-- MainDetailTeamComponent -->
<g id="node17" class="node">
<title>MainDetailTeamComponent</title>
<polygon fill="#ffffb3" stroke="#000000" points="1303.4622,-122 1126.5378,-122 1126.5378,-86 1303.4622,-86 1303.4622,-122"/>
<text text-anchor="middle" x="1215" y="-99.8" font-family="Times,serif" font-size="14.00" fill="#000000">MainDetailTeamComponent</text>
</g>
<!-- MainDetailTeamComponent&#45;&gt;PresentationalComponentsModule -->
<g id="edge17" class="edge">
<title>MainDetailTeamComponent&#45;&gt;PresentationalComponentsModule</title>
<path fill="none" stroke="#000000" d="M1250.7323,-122.2819C1250.7323,-137.9478 1250.7323,-158 1250.7323,-158 1250.7323,-158 1916.1747,-158 1916.1747,-158"/>
<polygon fill="#000000" stroke="#000000" points="1916.1748,-161.5001 1926.1747,-158 1916.1747,-154.5001 1916.1748,-161.5001"/>
</g>
<!-- MainListTeamComponent -->
<g id="node18" class="node">
<title>MainListTeamComponent</title>
<polygon fill="#ffffb3" stroke="#000000" points="1108.0337,-122 943.9663,-122 943.9663,-86 1108.0337,-86 1108.0337,-122"/>
<text text-anchor="middle" x="1026" y="-99.8" font-family="Times,serif" font-size="14.00" fill="#000000">MainListTeamComponent</text>
</g>
<!-- MainListTeamComponent&#45;&gt;PresentationalComponentsModule -->
<g id="edge18" class="edge">
<title>MainListTeamComponent&#45;&gt;PresentationalComponentsModule</title>
<path fill="none" stroke="#000000" d="M1057.9627,-122.0091C1057.9627,-138.0494 1057.9627,-159 1057.9627,-159 1057.9627,-159 1915.9435,-159 1915.9435,-159"/>
<polygon fill="#000000" stroke="#000000" points="1915.9435,-162.5001 1925.9435,-159 1915.9434,-155.5001 1915.9435,-162.5001"/>
</g>
<!-- MainNewTeamComponent -->
<g id="node19" class="node">
<title>MainNewTeamComponent</title>
<polygon fill="#ffffb3" stroke="#000000" points="925.6825,-122 756.3175,-122 756.3175,-86 925.6825,-86 925.6825,-122"/>
<text text-anchor="middle" x="841" y="-99.8" font-family="Times,serif" font-size="14.00" fill="#000000">MainNewTeamComponent</text>
</g>
<!-- MainNewTeamComponent&#45;&gt;PresentationalComponentsModule -->
<g id="edge19" class="edge">
<title>MainNewTeamComponent&#45;&gt;PresentationalComponentsModule</title>
<path fill="none" stroke="#000000" d="M875.76,-122.0352C875.76,-138.7344 875.76,-161 875.76,-161 875.76,-161 1916.1868,-161 1916.1868,-161"/>
<polygon fill="#000000" stroke="#000000" points="1916.1868,-164.5001 1926.1868,-161 1916.1867,-157.5001 1916.1868,-164.5001"/>
</g>
<!-- MainEditUserComponent -->
<g id="node20" class="node">
<title>MainEditUserComponent</title>
<polygon fill="#ffffb3" stroke="#000000" points="738.1428,-122 577.8572,-122 577.8572,-86 738.1428,-86 738.1428,-122"/>
<text text-anchor="middle" x="658" y="-99.8" font-family="Times,serif" font-size="14.00" fill="#000000">MainEditUserComponent</text>
</g>
<!-- MainEditUserComponent&#45;&gt;PresentationalComponentsModule -->
<g id="edge20" class="edge">
<title>MainEditUserComponent&#45;&gt;PresentationalComponentsModule</title>
<path fill="none" stroke="#000000" d="M685.4065,-122.0336C685.4065,-139.0597 685.4065,-162 685.4065,-162 685.4065,-162 1916.2538,-162 1916.2538,-162"/>
<polygon fill="#000000" stroke="#000000" points="1916.2538,-165.5001 1926.2538,-162 1916.2537,-158.5001 1916.2538,-165.5001"/>
</g>
<!-- MainDetailUserComponent -->
<g id="node21" class="node">
<title>MainDetailUserComponent</title>
<polygon fill="#ffffb3" stroke="#000000" points="559.5169,-122 388.4831,-122 388.4831,-86 559.5169,-86 559.5169,-122"/>
<text text-anchor="middle" x="474" y="-99.8" font-family="Times,serif" font-size="14.00" fill="#000000">MainDetailUserComponent</text>
</g>
<!-- MainDetailUserComponent&#45;&gt;PresentationalComponentsModule -->
<g id="edge21" class="edge">
<title>MainDetailUserComponent&#45;&gt;PresentationalComponentsModule</title>
<path fill="none" stroke="#000000" d="M502.8712,-122.002C502.8712,-139.6754 502.8712,-164 502.8711,-164 502.8711,-164 1916.2664,-164 1916.2664,-164"/>
<polygon fill="#000000" stroke="#000000" points="1916.2665,-167.5001 1926.2664,-164 1916.2664,-160.5001 1916.2665,-167.5001"/>
</g>
<!-- MainListUsersComponent -->
<g id="node22" class="node">
<title>MainListUsersComponent</title>
<polygon fill="#ffffb3" stroke="#000000" points="370.0323,-122 205.9677,-122 205.9677,-86 370.0323,-86 370.0323,-122"/>
<text text-anchor="middle" x="288" y="-99.8" font-family="Times,serif" font-size="14.00" fill="#000000">MainListUsersComponent</text>
</g>
<!-- MainListUsersComponent&#45;&gt;PresentationalComponentsModule -->
<g id="edge22" class="edge">
<title>MainListUsersComponent&#45;&gt;PresentationalComponentsModule</title>
<path fill="none" stroke="#000000" d="M315.3238,-122.2667C315.3238,-140.5552 315.3238,-166 315.3238,-166 315.3238,-166 1916.2594,-166 1916.2594,-166"/>
<polygon fill="#000000" stroke="#000000" points="1916.2595,-169.5001 1926.2594,-166 1916.2594,-162.5001 1916.2595,-169.5001"/>
</g>
<!-- MainNewUserComponent -->
<g id="node23" class="node">
<title>MainNewUserComponent</title>
<polygon fill="#ffffb3" stroke="#000000" points="187.7366,-122 24.2634,-122 24.2634,-86 187.7366,-86 187.7366,-122"/>
<text text-anchor="middle" x="106" y="-99.8" font-family="Times,serif" font-size="14.00" fill="#000000">MainNewUserComponent</text>
</g>
<!-- MainNewUserComponent&#45;&gt;PresentationalComponentsModule -->
<g id="edge23" class="edge">
<title>MainNewUserComponent&#45;&gt;PresentationalComponentsModule</title>
<path fill="none" stroke="#000000" d="M106,-122.2222C106,-140.8285 106,-167 106,-167 106,-167 1916.1366,-167 1916.1366,-167"/>
<polygon fill="#000000" stroke="#000000" points="1916.1366,-170.5001 1926.1366,-167 1916.1366,-163.5001 1916.1366,-170.5001"/>
</g>
<!-- SideMenuComponent  -->
<g id="node25" class="node">
<title>SideMenuComponent </title>
<polygon fill="#fb8072" stroke="#000000" points="4024.3799,-252 3881.6201,-252 3881.6201,-216 4024.3799,-216 4024.3799,-252"/>
<text text-anchor="middle" x="3953" y="-229.8" font-family="Times,serif" font-size="14.00" fill="#000000">SideMenuComponent </text>
</g>
<!-- PresentationalComponentsModule&#45;&gt;SideMenuComponent  -->
<g id="edge24" class="edge">
<title>PresentationalComponentsModule&#45;&gt;SideMenuComponent </title>
<path fill="none" stroke="#000000" stroke-dasharray="5,2" d="M2135.6781,-170C2540.0858,-170 3977.9799,-170 3977.9799,-170 3977.9799,-170 3977.9799,-205.8314 3977.9799,-205.8314"/>
<polygon fill="#000000" stroke="#000000" points="3974.48,-205.8313 3977.9799,-215.8314 3981.48,-205.8314 3974.48,-205.8313"/>
</g>
<!-- FooterComponent  -->
<g id="node26" class="node">
<title>FooterComponent </title>
<polygon fill="#fb8072" stroke="#000000" points="3863.8814,-252 3742.1186,-252 3742.1186,-216 3863.8814,-216 3863.8814,-252"/>
<text text-anchor="middle" x="3803" y="-229.8" font-family="Times,serif" font-size="14.00" fill="#000000">FooterComponent </text>
</g>
<!-- PresentationalComponentsModule&#45;&gt;FooterComponent  -->
<g id="edge25" class="edge">
<title>PresentationalComponentsModule&#45;&gt;FooterComponent </title>
<path fill="none" stroke="#000000" stroke-dasharray="5,2" d="M2135.7106,-172C2508.1025,-172 3746.1846,-172 3746.1846,-172 3746.1846,-172 3746.1846,-205.7333 3746.1846,-205.7333"/>
<polygon fill="#000000" stroke="#000000" points="3742.6847,-205.7333 3746.1846,-215.7333 3749.6847,-205.7333 3742.6847,-205.7333"/>
</g>
<!-- HeaderComponent  -->
<g id="node27" class="node">
<title>HeaderComponent </title>
<polygon fill="#fb8072" stroke="#000000" points="3724.7436,-252 3599.2564,-252 3599.2564,-216 3724.7436,-216 3724.7436,-252"/>
<text text-anchor="middle" x="3662" y="-229.8" font-family="Times,serif" font-size="14.00" fill="#000000">HeaderComponent </text>
</g>
<!-- PresentationalComponentsModule&#45;&gt;HeaderComponent  -->
<g id="edge26" class="edge">
<title>PresentationalComponentsModule&#45;&gt;HeaderComponent </title>
<path fill="none" stroke="#000000" stroke-dasharray="5,2" d="M2135.7828,-173C2487.6157,-173 3604.7533,-173 3604.7533,-173 3604.7533,-173 3604.7533,-205.698 3604.7533,-205.698"/>
<polygon fill="#000000" stroke="#000000" points="3601.2534,-205.698 3604.7533,-215.698 3608.2534,-205.698 3601.2534,-205.698"/>
</g>
<!-- MainComponent  -->
<g id="node28" class="node">
<title>MainComponent </title>
<polygon fill="#fb8072" stroke="#000000" points="3581.3828,-252 3466.6172,-252 3466.6172,-216 3581.3828,-216 3581.3828,-252"/>
<text text-anchor="middle" x="3524" y="-229.8" font-family="Times,serif" font-size="14.00" fill="#000000">MainComponent </text>
</g>
<!-- PresentationalComponentsModule&#45;&gt;MainComponent  -->
<g id="edge27" class="edge">
<title>PresentationalComponentsModule&#45;&gt;MainComponent </title>
<path fill="none" stroke="#000000" stroke-dasharray="5,2" d="M2135.6616,-175C2467.4657,-175 3474.1839,-175 3474.1839,-175 3474.1839,-175 3474.1839,-205.9775 3474.1839,-205.9775"/>
<polygon fill="#000000" stroke="#000000" points="3470.684,-205.9774 3474.1839,-215.9775 3477.684,-205.9775 3470.684,-205.9774"/>
</g>
<!-- SideMenuItemComponent  -->
<g id="node29" class="node">
<title>SideMenuItemComponent </title>
<polygon fill="#fb8072" stroke="#000000" points="3449.0358,-252 3280.9642,-252 3280.9642,-216 3449.0358,-216 3449.0358,-252"/>
<text text-anchor="middle" x="3365" y="-229.8" font-family="Times,serif" font-size="14.00" fill="#000000">SideMenuItemComponent </text>
</g>
<!-- PresentationalComponentsModule&#45;&gt;SideMenuItemComponent  -->
<g id="edge28" class="edge">
<title>PresentationalComponentsModule&#45;&gt;SideMenuItemComponent </title>
<path fill="none" stroke="#000000" stroke-dasharray="5,2" d="M2135.6596,-177C2438.9205,-177 3296.7635,-177 3296.7635,-177 3296.7635,-177 3296.7635,-205.9648 3296.7635,-205.9648"/>
<polygon fill="#000000" stroke="#000000" points="3293.2636,-205.9648 3296.7635,-215.9648 3300.2636,-205.9649 3293.2636,-205.9648"/>
</g>
<!-- MainDetailBlogComponent  -->
<g id="node30" class="node">
<title>MainDetailBlogComponent </title>
<polygon fill="#fb8072" stroke="#000000" points="3262.8171,-252 3087.1829,-252 3087.1829,-216 3262.8171,-216 3262.8171,-252"/>
<text text-anchor="middle" x="3175" y="-229.8" font-family="Times,serif" font-size="14.00" fill="#000000">MainDetailBlogComponent </text>
</g>
<!-- PresentationalComponentsModule&#45;&gt;MainDetailBlogComponent  -->
<g id="edge29" class="edge">
<title>PresentationalComponentsModule&#45;&gt;MainDetailBlogComponent </title>
<path fill="none" stroke="#000000" stroke-dasharray="5,2" d="M2135.7368,-178C2408.2139,-178 3118.1797,-178 3118.1797,-178 3118.1797,-178 3118.1797,-205.973 3118.1797,-205.973"/>
<polygon fill="#000000" stroke="#000000" points="3114.6798,-205.973 3118.1797,-215.973 3121.6798,-205.973 3114.6798,-205.973"/>
</g>
<!-- MainListBlogComponent  -->
<g id="node31" class="node">
<title>MainListBlogComponent </title>
<polygon fill="#fb8072" stroke="#000000" points="3068.8883,-252 2905.1117,-252 2905.1117,-216 3068.8883,-216 3068.8883,-252"/>
<text text-anchor="middle" x="2987" y="-229.8" font-family="Times,serif" font-size="14.00" fill="#000000">MainListBlogComponent </text>
</g>
<!-- PresentationalComponentsModule&#45;&gt;MainListBlogComponent  -->
<g id="edge30" class="edge">
<title>PresentationalComponentsModule&#45;&gt;MainListBlogComponent </title>
<path fill="none" stroke="#000000" stroke-dasharray="5,2" d="M2135.726,-180C2374.0111,-180 2936.2323,-180 2936.2323,-180 2936.2323,-180 2936.2323,-205.7181 2936.2323,-205.7181"/>
<polygon fill="#000000" stroke="#000000" points="2932.7324,-205.718 2936.2323,-215.7181 2939.7324,-205.7181 2932.7324,-205.718"/>
</g>
<!-- MainNewBlogComponent  -->
<g id="node32" class="node">
<title>MainNewBlogComponent </title>
<polygon fill="#fb8072" stroke="#000000" points="2887.0372,-252 2718.9628,-252 2718.9628,-216 2887.0372,-216 2887.0372,-252"/>
<text text-anchor="middle" x="2803" y="-229.8" font-family="Times,serif" font-size="14.00" fill="#000000">MainNewBlogComponent </text>
</g>
<!-- PresentationalComponentsModule&#45;&gt;MainNewBlogComponent  -->
<g id="edge31" class="edge">
<title>PresentationalComponentsModule&#45;&gt;MainNewBlogComponent </title>
<path fill="none" stroke="#000000" stroke-dasharray="5,2" d="M2135.6362,-181C2334.6322,-181 2747.9627,-181 2747.9627,-181 2747.9627,-181 2747.9627,-205.7604 2747.9627,-205.7604"/>
<polygon fill="#000000" stroke="#000000" points="2744.4627,-205.7604 2747.9627,-215.7604 2751.4627,-205.7604 2744.4627,-205.7604"/>
</g>
<!-- BreadcrumbsComponent  -->
<g id="node33" class="node">
<title>BreadcrumbsComponent </title>
<polygon fill="#fb8072" stroke="#000000" points="2700.9699,-252 2541.0301,-252 2541.0301,-216 2700.9699,-216 2700.9699,-252"/>
<text text-anchor="middle" x="2621" y="-229.8" font-family="Times,serif" font-size="14.00" fill="#000000">BreadcrumbsComponent </text>
</g>
<!-- PresentationalComponentsModule&#45;&gt;BreadcrumbsComponent  -->
<g id="edge32" class="edge">
<title>PresentationalComponentsModule&#45;&gt;BreadcrumbsComponent </title>
<path fill="none" stroke="#000000" stroke-dasharray="5,2" d="M2135.876,-183C2292.6663,-183 2569.9602,-183 2569.9602,-183 2569.9602,-183 2569.9602,-205.8757 2569.9602,-205.8757"/>
<polygon fill="#000000" stroke="#000000" points="2566.4603,-205.8757 2569.9602,-215.8757 2573.4603,-205.8757 2566.4603,-205.8757"/>
</g>
<!-- MainNewComponent  -->
<g id="node34" class="node">
<title>MainNewComponent </title>
<polygon fill="#fb8072" stroke="#000000" points="2523.3101,-252 2382.6899,-252 2382.6899,-216 2523.3101,-216 2523.3101,-252"/>
<text text-anchor="middle" x="2453" y="-229.8" font-family="Times,serif" font-size="14.00" fill="#000000">MainNewComponent </text>
</g>
<!-- PresentationalComponentsModule&#45;&gt;MainNewComponent  -->
<g id="edge33" class="edge">
<title>PresentationalComponentsModule&#45;&gt;MainNewComponent </title>
<path fill="none" stroke="#000000" stroke-dasharray="5,2" d="M2135.8697,-184C2248.9367,-184 2412.9318,-184 2412.9318,-184 2412.9318,-184 2412.9318,-205.9489 2412.9318,-205.9489"/>
<polygon fill="#000000" stroke="#000000" points="2409.4319,-205.9488 2412.9318,-215.9489 2416.4319,-205.9489 2409.4319,-205.9488"/>
</g>
<!-- MainDetailProjectComponent  -->
<g id="node35" class="node">
<title>MainDetailProjectComponent </title>
<polygon fill="#fb8072" stroke="#000000" points="2364.2436,-252 2175.7564,-252 2175.7564,-216 2364.2436,-216 2364.2436,-252"/>
<text text-anchor="middle" x="2270" y="-229.8" font-family="Times,serif" font-size="14.00" fill="#000000">MainDetailProjectComponent </text>
</g>
<!-- PresentationalComponentsModule&#45;&gt;MainDetailProjectComponent  -->
<g id="edge34" class="edge">
<title>PresentationalComponentsModule&#45;&gt;MainDetailProjectComponent </title>
<path fill="none" stroke="#000000" stroke-dasharray="5,2" d="M2135.6757,-186C2178.6091,-186 2218.4315,-186 2218.4315,-186 2218.4315,-186 2218.4315,-205.8533 2218.4315,-205.8533"/>
<polygon fill="#000000" stroke="#000000" points="2214.9315,-205.8532 2218.4315,-215.8533 2221.9315,-205.8533 2214.9315,-205.8532"/>
</g>
<!-- MainListProjectsComponent  -->
<g id="node36" class="node">
<title>MainListProjectsComponent </title>
<polygon fill="#fb8072" stroke="#000000" points="2157.759,-252 1976.241,-252 1976.241,-216 2157.759,-216 2157.759,-252"/>
<text text-anchor="middle" x="2067" y="-229.8" font-family="Times,serif" font-size="14.00" fill="#000000">MainListProjectsComponent </text>
</g>
<!-- PresentationalComponentsModule&#45;&gt;MainListProjectsComponent  -->
<g id="edge35" class="edge">
<title>PresentationalComponentsModule&#45;&gt;MainListProjectsComponent </title>
<path fill="none" stroke="#000000" stroke-dasharray="5,2" d="M2056.0942,-187.1061C2056.0942,-187.1061 2056.0942,-205.991 2056.0942,-205.991"/>
<polygon fill="#000000" stroke="#000000" points="2052.5942,-205.9909 2056.0942,-215.991 2059.5942,-205.991 2052.5942,-205.9909"/>
</g>
<!-- MainNewProjectComponent  -->
<g id="node37" class="node">
<title>MainNewProjectComponent </title>
<polygon fill="#fb8072" stroke="#000000" points="1958.4642,-252 1777.5358,-252 1777.5358,-216 1958.4642,-216 1958.4642,-252"/>
<text text-anchor="middle" x="1868" y="-229.8" font-family="Times,serif" font-size="14.00" fill="#000000">MainNewProjectComponent </text>
</g>
<!-- PresentationalComponentsModule&#45;&gt;MainNewProjectComponent  -->
<g id="edge36" class="edge">
<title>PresentationalComponentsModule&#45;&gt;MainNewProjectComponent </title>
<path fill="none" stroke="#000000" stroke-dasharray="5,2" d="M1942.2071,-187.1061C1942.2071,-187.1061 1942.2071,-205.991 1942.2071,-205.991"/>
<polygon fill="#000000" stroke="#000000" points="1938.7071,-205.9909 1942.2071,-215.991 1945.7071,-205.991 1938.7071,-205.9909"/>
</g>
<!-- MainEditProjectComponent  -->
<g id="node38" class="node">
<title>MainEditProjectComponent </title>
<polygon fill="#fb8072" stroke="#000000" points="1759.87,-252 1582.13,-252 1582.13,-216 1759.87,-216 1759.87,-252"/>
<text text-anchor="middle" x="1671" y="-229.8" font-family="Times,serif" font-size="14.00" fill="#000000">MainEditProjectComponent </text>
</g>
<!-- PresentationalComponentsModule&#45;&gt;MainEditProjectComponent  -->
<g id="edge37" class="edge">
<title>PresentationalComponentsModule&#45;&gt;MainEditProjectComponent </title>
<path fill="none" stroke="#000000" stroke-dasharray="5,2" d="M1925.9976,-184C1837.3131,-184 1724.642,-184 1724.642,-184 1724.642,-184 1724.642,-205.9489 1724.642,-205.9489"/>
<polygon fill="#000000" stroke="#000000" points="1721.1421,-205.9488 1724.642,-215.9489 1728.1421,-205.9489 1721.1421,-205.9488"/>
</g>
<!-- PresentationalComponentsModule&#45;&gt;MainEditProjectComponent  -->
<g id="edge41" class="edge">
<title>PresentationalComponentsModule&#45;&gt;MainEditProjectComponent </title>
<path fill="none" stroke="#000000" stroke-dasharray="5,2" d="M1926.315,-186C1843.6549,-186 1742.1634,-186 1742.1634,-186 1742.1634,-186 1742.1634,-205.8533 1742.1634,-205.8533"/>
<polygon fill="#000000" stroke="#000000" points="1738.6635,-205.8532 1742.1634,-215.8533 1745.6635,-205.8533 1738.6635,-205.8532"/>
</g>
<!-- MainDetailTeamComponent  -->
<g id="node39" class="node">
<title>MainDetailTeamComponent </title>
<polygon fill="#fb8072" stroke="#000000" points="1564.4628,-252 1383.5372,-252 1383.5372,-216 1564.4628,-216 1564.4628,-252"/>
<text text-anchor="middle" x="1474" y="-229.8" font-family="Times,serif" font-size="14.00" fill="#000000">MainDetailTeamComponent </text>
</g>
<!-- PresentationalComponentsModule&#45;&gt;MainDetailTeamComponent  -->
<g id="edge38" class="edge">
<title>PresentationalComponentsModule&#45;&gt;MainDetailTeamComponent </title>
<path fill="none" stroke="#000000" stroke-dasharray="5,2" d="M1926.2759,-183C1783.9582,-183 1546.9935,-183 1546.9935,-183 1546.9935,-183 1546.9935,-205.8757 1546.9935,-205.8757"/>
<polygon fill="#000000" stroke="#000000" points="1543.4936,-205.8757 1546.9935,-215.8757 1550.4936,-205.8757 1543.4936,-205.8757"/>
</g>
<!-- PresentationalComponentsModule&#45;&gt;MainDetailTeamComponent  -->
<g id="edge42" class="edge">
<title>PresentationalComponentsModule&#45;&gt;MainDetailTeamComponent </title>
<path fill="none" stroke="#000000" stroke-dasharray="5,2" d="M1926.228,-181C1779.2872,-181 1529.7558,-181 1529.7558,-181 1529.7558,-181 1529.7558,-205.7604 1529.7558,-205.7604"/>
<polygon fill="#000000" stroke="#000000" points="1526.2559,-205.7604 1529.7558,-215.7604 1533.2559,-205.7604 1526.2559,-205.7604"/>
</g>
<!-- MainListTeamComponent  -->
<g id="node40" class="node">
<title>MainListTeamComponent </title>
<polygon fill="#fb8072" stroke="#000000" points="1366.033,-252 1197.967,-252 1197.967,-216 1366.033,-216 1366.033,-252"/>
<text text-anchor="middle" x="1282" y="-229.8" font-family="Times,serif" font-size="14.00" fill="#000000">MainListTeamComponent </text>
</g>
<!-- PresentationalComponentsModule&#45;&gt;MainListTeamComponent  -->
<g id="edge39" class="edge">
<title>PresentationalComponentsModule&#45;&gt;MainListTeamComponent </title>
<path fill="none" stroke="#000000" stroke-dasharray="5,2" d="M1926.2064,-178C1732.0655,-178 1336.049,-178 1336.049,-178 1336.049,-178 1336.049,-205.973 1336.049,-205.973"/>
<polygon fill="#000000" stroke="#000000" points="1332.5491,-205.973 1336.049,-215.973 1339.5491,-205.973 1332.5491,-205.973"/>
</g>
<!-- PresentationalComponentsModule&#45;&gt;MainListTeamComponent  -->
<g id="edge43" class="edge">
<title>PresentationalComponentsModule&#45;&gt;MainListTeamComponent </title>
<path fill="none" stroke="#000000" stroke-dasharray="5,2" d="M1926.2453,-180C1735.509,-180 1351.0327,-180 1351.0327,-180 1351.0327,-180 1351.0327,-205.7181 1351.0327,-205.7181"/>
<polygon fill="#000000" stroke="#000000" points="1347.5328,-205.718 1351.0327,-215.7181 1354.5328,-205.7181 1347.5328,-205.718"/>
</g>
<!-- MainNewTeamComponent  -->
<g id="node41" class="node">
<title>MainNewTeamComponent </title>
<polygon fill="#fb8072" stroke="#000000" points="1180.1827,-252 1007.8173,-252 1007.8173,-216 1180.1827,-216 1180.1827,-252"/>
<text text-anchor="middle" x="1094" y="-229.8" font-family="Times,serif" font-size="14.00" fill="#000000">MainNewTeamComponent </text>
</g>
<!-- PresentationalComponentsModule&#45;&gt;MainNewTeamComponent  -->
<g id="edge40" class="edge">
<title>PresentationalComponentsModule&#45;&gt;MainNewTeamComponent </title>
<path fill="none" stroke="#000000" stroke-dasharray="5,2" d="M1926.2266,-177C1695.2056,-177 1162.4004,-177 1162.4004,-177 1162.4004,-177 1162.4004,-205.9648 1162.4004,-205.9648"/>
<polygon fill="#000000" stroke="#000000" points="1158.9005,-205.9648 1162.4004,-215.9648 1165.9005,-205.9649 1158.9005,-205.9648"/>
</g>
<!-- PresentationalComponentsModule&#45;&gt;MainNewTeamComponent  -->
<g id="edge44" class="edge">
<title>PresentationalComponentsModule&#45;&gt;MainNewTeamComponent </title>
<path fill="none" stroke="#000000" stroke-dasharray="5,2" d="M1926.2586,-175C1691.6655,-175 1144.4597,-175 1144.4597,-175 1144.4597,-175 1144.4597,-205.9775 1144.4597,-205.9775"/>
<polygon fill="#000000" stroke="#000000" points="1140.9598,-205.9774 1144.4597,-215.9775 1147.9598,-205.9775 1140.9598,-205.9774"/>
</g>
<!-- MainEditUserComponent  -->
<g id="node42" class="node">
<title>MainEditUserComponent </title>
<polygon fill="#fb8072" stroke="#000000" points="990.1425,-252 825.8575,-252 825.8575,-216 990.1425,-216 990.1425,-252"/>
<text text-anchor="middle" x="908" y="-229.8" font-family="Times,serif" font-size="14.00" fill="#000000">MainEditUserComponent </text>
</g>
<!-- PresentationalComponentsModule&#45;&gt;MainEditUserComponent  -->
<g id="edge45" class="edge">
<title>PresentationalComponentsModule&#45;&gt;MainEditUserComponent </title>
<path fill="none" stroke="#000000" stroke-dasharray="5,2" d="M1926.058,-173C1657.6024,-173 966.9024,-173 966.9024,-173 966.9024,-173 966.9024,-205.698 966.9024,-205.698"/>
<polygon fill="#000000" stroke="#000000" points="963.4024,-205.698 966.9024,-215.698 970.4024,-205.698 963.4024,-205.698"/>
</g>
<!-- MainDetailUserComponent  -->
<g id="node43" class="node">
<title>MainDetailUserComponent </title>
<polygon fill="#fb8072" stroke="#000000" points="807.5162,-252 632.4838,-252 632.4838,-216 807.5162,-216 807.5162,-252"/>
<text text-anchor="middle" x="720" y="-229.8" font-family="Times,serif" font-size="14.00" fill="#000000">MainDetailUserComponent </text>
</g>
<!-- PresentationalComponentsModule&#45;&gt;MainDetailUserComponent  -->
<g id="edge46" class="edge">
<title>PresentationalComponentsModule&#45;&gt;MainDetailUserComponent </title>
<path fill="none" stroke="#000000" stroke-dasharray="5,2" d="M1926.1204,-172C1625.4587,-172 781.9585,-172 781.9585,-172 781.9585,-172 781.9585,-205.7333 781.9585,-205.7333"/>
<polygon fill="#000000" stroke="#000000" points="778.4585,-205.7333 781.9585,-215.7333 785.4585,-205.7333 778.4585,-205.7333"/>
</g>
<!-- MainListUsersComponent  -->
<g id="node44" class="node">
<title>MainListUsersComponent </title>
<polygon fill="#fb8072" stroke="#000000" points="614.0316,-252 445.9684,-252 445.9684,-216 614.0316,-216 614.0316,-252"/>
<text text-anchor="middle" x="530" y="-229.8" font-family="Times,serif" font-size="14.00" fill="#000000">MainListUsersComponent </text>
</g>
<!-- PresentationalComponentsModule&#45;&gt;MainListUsersComponent  -->
<g id="edge47" class="edge">
<title>PresentationalComponentsModule&#45;&gt;MainListUsersComponent </title>
<path fill="none" stroke="#000000" stroke-dasharray="5,2" d="M1926.3415,-170C1595.793,-170 595.8473,-170 595.8473,-170 595.8473,-170 595.8473,-205.8314 595.8473,-205.8314"/>
<polygon fill="#000000" stroke="#000000" points="592.3472,-205.8314 595.8473,-215.8314 599.3472,-205.8313 592.3472,-205.8314"/>
</g>
<!-- MainNewUserComponent  -->
<g id="node45" class="node">
<title>MainNewUserComponent </title>
<polygon fill="#fb8072" stroke="#000000" points="427.7366,-252 260.2634,-252 260.2634,-216 427.7366,-216 427.7366,-252"/>
<text text-anchor="middle" x="344" y="-229.8" font-family="Times,serif" font-size="14.00" fill="#000000">MainNewUserComponent </text>
</g>
<!-- PresentationalComponentsModule&#45;&gt;MainNewUserComponent  -->
<g id="edge48" class="edge">
<title>PresentationalComponentsModule&#45;&gt;MainNewUserComponent </title>
<path fill="none" stroke="#000000" stroke-dasharray="5,2" d="M1926.0681,-169C1566.7622,-169 407.93,-169 407.93,-169 407.93,-169 407.93,-205.8939 407.93,-205.8939"/>
<polygon fill="#000000" stroke="#000000" points="404.43,-205.8939 407.9301,-215.8939 411.43,-205.8938 404.43,-205.8939"/>
</g>
</g>
</svg>
