<?xml version="1.0" encoding="UTF-8" standalone="no"?>
<!DOCTYPE svg PUBLIC "-//W3C//DTD SVG 1.1//EN"
 "http://www.w3.org/Graphics/SVG/1.1/DTD/svg11.dtd">
<!-- Generated by graphviz version 2.40.1 (20161225.0304)
 -->
<!-- Title: dependencies Pages: 1 -->
<svg width="802pt" height="211pt"
 viewBox="0.00 0.00 802.00 211.00" xmlns="http://www.w3.org/2000/svg" xmlns:xlink="http://www.w3.org/1999/xlink">
<g id="graph0" class="graph" transform="scale(1 1) rotate(0) translate(4 207)">
<title>dependencies</title>
<polygon fill="#ffffff" stroke="transparent" points="-4,4 -4,-207 798,-207 798,4 -4,4"/>
<text text-anchor="start" x="376.0091" y="-42.4" font-family="sans-serif" font-weight="bold" font-size="14.00" fill="#000000">Legend</text>
<polygon fill="#ffffb3" stroke="transparent" points="163,-10 163,-30 183,-30 183,-10 163,-10"/>
<text text-anchor="start" x="186.629" y="-15.4" font-family="sans-serif" font-size="14.00" fill="#000000"> &#160;Declarations</text>
<polygon fill="#8dd3c7" stroke="transparent" points="276,-10 276,-30 296,-30 296,-10 276,-10"/>
<text text-anchor="start" x="299.7251" y="-15.4" font-family="sans-serif" font-size="14.00" fill="#000000"> &#160;Module</text>
<polygon fill="#80b1d3" stroke="transparent" points="362,-10 362,-30 382,-30 382,-10 362,-10"/>
<text text-anchor="start" x="385.7812" y="-15.4" font-family="sans-serif" font-size="14.00" fill="#000000"> &#160;Bootstrap</text>
<polygon fill="#fdb462" stroke="transparent" points="459,-10 459,-30 479,-30 479,-10 459,-10"/>
<text text-anchor="start" x="482.6732" y="-15.4" font-family="sans-serif" font-size="14.00" fill="#000000"> &#160;Providers</text>
<polygon fill="#fb8072" stroke="transparent" points="555,-10 555,-30 575,-30 575,-10 555,-10"/>
<text text-anchor="start" x="578.7258" y="-15.4" font-family="sans-serif" font-size="14.00" fill="#000000"> &#160;Exports</text>
<g id="clust1" class="cluster">
<title>cluster_TeamModule</title>
<polygon fill="none" stroke="#000000" stroke-dasharray="1,5" points="8,-70 8,-195 786,-195 786,-70 8,-70"/>
</g>
<g id="clust2" class="cluster">
<title>cluster_TeamModule_declarations</title>
<polygon fill="none" stroke="#000000" points="172,-78 172,-130 778,-130 778,-78 172,-78"/>
</g>
<g id="clust10" class="cluster">
<title>cluster_TeamModule_providers</title>
<polygon fill="none" stroke="#000000" points="16,-78 16,-130 164,-130 164,-78 16,-78"/>
</g>
<!-- TeamComponent -->
<g id="node1" class="node">
<title>TeamComponent</title>
<polygon fill="#ffffb3" stroke="#000000" points="769.705,-122 656.295,-122 656.295,-86 769.705,-86 769.705,-122"/>
<text text-anchor="middle" x="713" y="-99.8" font-family="Times,serif" font-size="14.00" fill="#000000">TeamComponent</text>
</g>
<!-- TeamModule -->
<g id="node5" class="node">
<title>TeamModule</title>
<polygon fill="#8dd3c7" stroke="#000000" points="461.9232,-187 458.9232,-191 437.9232,-191 434.9232,-187 370.0768,-187 370.0768,-151 461.9232,-151 461.9232,-187"/>
<text text-anchor="middle" x="416" y="-164.8" font-family="Times,serif" font-size="14.00" fill="#000000">TeamModule</text>
</g>
<!-- TeamComponent&#45;&gt;TeamModule -->
<g id="edge1" class="edge">
<title>TeamComponent&#45;&gt;TeamModule</title>
<path fill="none" stroke="#000000" d="M713,-122.2843C713,-143.3211 713,-175 713,-175 713,-175 471.7554,-175 471.7554,-175"/>
<polygon fill="#000000" stroke="#000000" points="471.7554,-171.5001 461.7554,-175 471.7553,-178.5001 471.7554,-171.5001"/>
</g>
<!-- TeamListComponent -->
<g id="node2" class="node">
<title>TeamListComponent</title>
<polygon fill="#ffffb3" stroke="#000000" points="638.4832,-122 503.5168,-122 503.5168,-86 638.4832,-86 638.4832,-122"/>
<text text-anchor="middle" x="571" y="-99.8" font-family="Times,serif" font-size="14.00" fill="#000000">TeamListComponent</text>
</g>
<!-- TeamListComponent&#45;&gt;TeamModule -->
<g id="edge2" class="edge">
<title>TeamListComponent&#45;&gt;TeamModule</title>
<path fill="none" stroke="#000000" d="M571,-122.0225C571,-139.3734 571,-163 571,-163 571,-163 472.0854,-163 472.0854,-163"/>
<polygon fill="#000000" stroke="#000000" points="472.0855,-159.5001 462.0854,-163 472.0854,-166.5001 472.0855,-159.5001"/>
</g>
<!-- TeamNewComponent -->
<g id="node3" class="node">
<title>TeamNewComponent</title>
<polygon fill="#ffffb3" stroke="#000000" points="485.6331,-122 346.3669,-122 346.3669,-86 485.6331,-86 485.6331,-122"/>
<text text-anchor="middle" x="416" y="-99.8" font-family="Times,serif" font-size="14.00" fill="#000000">TeamNewComponent</text>
</g>
<!-- TeamNewComponent&#45;&gt;TeamModule -->
<g id="edge3" class="edge">
<title>TeamNewComponent&#45;&gt;TeamModule</title>
<path fill="none" stroke="#000000" d="M416,-122.1061C416,-122.1061 416,-140.991 416,-140.991"/>
<polygon fill="#000000" stroke="#000000" points="412.5001,-140.9909 416,-150.991 419.5001,-140.991 412.5001,-140.9909"/>
</g>
<!-- TeamDetailComponent -->
<g id="node4" class="node">
<title>TeamDetailComponent</title>
<polygon fill="#ffffb3" stroke="#000000" points="327.913,-122 180.087,-122 180.087,-86 327.913,-86 327.913,-122"/>
<text text-anchor="middle" x="254" y="-99.8" font-family="Times,serif" font-size="14.00" fill="#000000">TeamDetailComponent</text>
</g>
<!-- TeamDetailComponent&#45;&gt;TeamModule -->
<g id="edge4" class="edge">
<title>TeamDetailComponent&#45;&gt;TeamModule</title>
<path fill="none" stroke="#000000" d="M254,-122.0225C254,-139.3734 254,-163 254,-163 254,-163 360.0106,-163 360.0106,-163"/>
<polygon fill="#000000" stroke="#000000" points="360.0107,-166.5001 370.0106,-163 360.0106,-159.5001 360.0107,-166.5001"/>
</g>
<!-- TeamsService -->
<g id="node6" class="node">
<title>TeamsService</title>
<ellipse fill="#fdb462" stroke="#000000" cx="90" cy="-104" rx="65.9658" ry="18"/>
<text text-anchor="middle" x="90" y="-99.8" font-family="Times,serif" font-size="14.00" fill="#000000">TeamsService</text>
</g>
<!-- TeamsService&#45;&gt;TeamModule -->
<g id="edge5" class="edge">
<title>TeamsService&#45;&gt;TeamModule</title>
<path fill="none" stroke="#000000" d="M90,-122.2843C90,-143.3211 90,-175 90,-175 90,-175 359.9836,-175 359.9836,-175"/>
<polygon fill="#000000" stroke="#000000" points="359.9836,-178.5001 369.9836,-175 359.9836,-171.5001 359.9836,-178.5001"/>
</g>
</g>
</svg>
