<?xml version="1.0" encoding="UTF-8" standalone="no"?>
<!DOCTYPE svg PUBLIC "-//W3C//DTD SVG 1.1//EN"
 "http://www.w3.org/Graphics/SVG/1.1/DTD/svg11.dtd">
<!-- Generated by graphviz version 2.40.1 (20161225.0304)
 -->
<!-- Title: dependencies Pages: 1 -->
<svg width="1695pt" height="284pt"
 viewBox="0.00 0.00 1695.00 284.00" xmlns="http://www.w3.org/2000/svg" xmlns:xlink="http://www.w3.org/1999/xlink">
<g id="graph0" class="graph" transform="scale(1 1) rotate(0) translate(4 280)">
<title>dependencies</title>
<polygon fill="#ffffff" stroke="transparent" points="-4,4 -4,-280 1691,-280 1691,4 -4,4"/>
<text text-anchor="start" x="822.5091" y="-42.4" font-family="sans-serif" font-weight="bold" font-size="14.00" fill="#000000">Legend</text>
<polygon fill="#ffffb3" stroke="transparent" points="609.5,-10 609.5,-30 629.5,-30 629.5,-10 609.5,-10"/>
<text text-anchor="start" x="633.129" y="-15.4" font-family="sans-serif" font-size="14.00" fill="#000000"> &#160;Declarations</text>
<polygon fill="#8dd3c7" stroke="transparent" points="722.5,-10 722.5,-30 742.5,-30 742.5,-10 722.5,-10"/>
<text text-anchor="start" x="746.2251" y="-15.4" font-family="sans-serif" font-size="14.00" fill="#000000"> &#160;Module</text>
<polygon fill="#80b1d3" stroke="transparent" points="808.5,-10 808.5,-30 828.5,-30 828.5,-10 808.5,-10"/>
<text text-anchor="start" x="832.2812" y="-15.4" font-family="sans-serif" font-size="14.00" fill="#000000"> &#160;Bootstrap</text>
<polygon fill="#fdb462" stroke="transparent" points="905.5,-10 905.5,-30 925.5,-30 925.5,-10 905.5,-10"/>
<text text-anchor="start" x="929.1732" y="-15.4" font-family="sans-serif" font-size="14.00" fill="#000000"> &#160;Providers</text>
<polygon fill="#fb8072" stroke="transparent" points="1001.5,-10 1001.5,-30 1021.5,-30 1021.5,-10 1001.5,-10"/>
<text text-anchor="start" x="1025.2258" y="-15.4" font-family="sans-serif" font-size="14.00" fill="#000000"> &#160;Exports</text>
<g id="clust1" class="cluster">
<title>cluster_AppModule</title>
<polygon fill="none" stroke="#000000" stroke-dasharray="1,5" points="8,-70 8,-268 1679,-268 1679,-70 8,-70"/>
</g>
<g id="clust2" class="cluster">
<title>cluster_AppModule_declarations</title>
<polygon fill="none" stroke="#000000" points="1283,-78 1283,-130 1671,-130 1671,-78 1283,-78"/>
</g>
<g id="clust6" class="cluster">
<title>cluster_AppModule_imports</title>
<polygon fill="none" stroke="#000000" points="831,-78 831,-130 1275,-130 1275,-78 831,-78"/>
</g>
<g id="clust8" class="cluster">
<title>cluster_AppModule_bootstrap</title>
<polygon fill="none" stroke="#000000" points="877,-208 877,-260 1001,-260 1001,-208 877,-208"/>
</g>
<g id="clust9" class="cluster">
<title>cluster_AppModule_providers</title>
<polygon fill="none" stroke="#000000" points="16,-78 16,-130 823,-130 823,-78 16,-78"/>
</g>
<!-- AppComponent -->
<g id="node1" class="node">
<title>AppComponent</title>
<polygon fill="#ffffb3" stroke="#000000" points="1662.9399,-122 1557.0601,-122 1557.0601,-86 1662.9399,-86 1662.9399,-122"/>
<text text-anchor="middle" x="1610" y="-99.8" font-family="Times,serif" font-size="14.00" fill="#000000">AppComponent</text>
</g>
<!-- AppModule -->
<g id="node4" class="node">
<title>AppModule</title>
<polygon fill="#8dd3c7" stroke="#000000" points="980.6571,-187 977.6571,-191 956.6571,-191 953.6571,-187 897.3429,-187 897.3429,-151 980.6571,-151 980.6571,-187"/>
<text text-anchor="middle" x="939" y="-164.8" font-family="Times,serif" font-size="14.00" fill="#000000">AppModule</text>
</g>
<!-- AppComponent&#45;&gt;AppModule -->
<g id="edge1" class="edge">
<title>AppComponent&#45;&gt;AppModule</title>
<path fill="none" stroke="#000000" d="M1610,-122.2479C1610,-145.0179 1610,-181 1610,-181 1610,-181 990.7205,-181 990.7205,-181"/>
<polygon fill="#000000" stroke="#000000" points="990.7206,-177.5001 980.7205,-181 990.7205,-184.5001 990.7206,-177.5001"/>
</g>
<!-- LoginComponent -->
<g id="node2" class="node">
<title>LoginComponent</title>
<polygon fill="#ffffb3" stroke="#000000" points="1539.2758,-122 1424.7242,-122 1424.7242,-86 1539.2758,-86 1539.2758,-122"/>
<text text-anchor="middle" x="1482" y="-99.8" font-family="Times,serif" font-size="14.00" fill="#000000">LoginComponent</text>
</g>
<!-- LoginComponent&#45;&gt;AppModule -->
<g id="edge2" class="edge">
<title>LoginComponent&#45;&gt;AppModule</title>
<path fill="none" stroke="#000000" d="M1482,-122.2843C1482,-143.3211 1482,-175 1482,-175 1482,-175 990.7067,-175 990.7067,-175"/>
<polygon fill="#000000" stroke="#000000" points="990.7067,-171.5001 980.7067,-175 990.7066,-178.5001 990.7067,-171.5001"/>
</g>
<!-- HomeComponent -->
<g id="node3" class="node">
<title>HomeComponent</title>
<polygon fill="#ffffb3" stroke="#000000" points="1406.5451,-122 1291.4549,-122 1291.4549,-86 1406.5451,-86 1406.5451,-122"/>
<text text-anchor="middle" x="1349" y="-99.8" font-family="Times,serif" font-size="14.00" fill="#000000">HomeComponent</text>
</g>
<!-- HomeComponent&#45;&gt;AppModule -->
<g id="edge3" class="edge">
<title>HomeComponent&#45;&gt;AppModule</title>
<path fill="none" stroke="#000000" d="M1349,-122.1061C1349,-141.3391 1349,-169 1349,-169 1349,-169 990.9504,-169 990.9504,-169"/>
<polygon fill="#000000" stroke="#000000" points="990.9504,-165.5001 980.9504,-169 990.9504,-172.5001 990.9504,-165.5001"/>
</g>
<!-- AppComponent  -->
<g id="node9" class="node">
<title>AppComponent </title>
<polygon fill="#80b1d3" stroke="#000000" points="993.439,-252 884.561,-252 884.561,-216 993.439,-216 993.439,-252"/>
<text text-anchor="middle" x="939" y="-229.8" font-family="Times,serif" font-size="14.00" fill="#000000">AppComponent </text>
</g>
<!-- AppModule&#45;&gt;AppComponent  -->
<g id="edge8" class="edge">
<title>AppModule&#45;&gt;AppComponent </title>
<path fill="none" stroke="#000000" stroke-dasharray="1,5" d="M939,-187.1061C939,-187.1061 939,-205.991 939,-205.991"/>
<polygon fill="#000000" stroke="#000000" points="935.5001,-205.9909 939,-215.991 942.5001,-205.991 935.5001,-205.9909"/>
</g>
<!-- BlogModule -->
<g id="node5" class="node">
<title>BlogModule</title>
<polygon fill="#8dd3c7" stroke="#000000" points="1267.2773,-122 1264.2773,-126 1243.2773,-126 1240.2773,-122 1180.7227,-122 1180.7227,-86 1267.2773,-86 1267.2773,-122"/>
<text text-anchor="middle" x="1224" y="-99.8" font-family="Times,serif" font-size="14.00" fill="#000000">BlogModule</text>
</g>
<!-- BlogModule&#45;&gt;AppModule -->
<g id="edge4" class="edge">
<title>BlogModule&#45;&gt;AppModule</title>
<path fill="none" stroke="#000000" d="M1224,-122.0225C1224,-139.3734 1224,-163 1224,-163 1224,-163 990.7467,-163 990.7467,-163"/>
<polygon fill="#000000" stroke="#000000" points="990.7467,-159.5001 980.7467,-163 990.7466,-166.5001 990.7467,-159.5001"/>
</g>
<!-- ProjectsModule -->
<g id="node6" class="node">
<title>ProjectsModule</title>
<polygon fill="#8dd3c7" stroke="#000000" points="1162.1486,-122 1159.1486,-126 1138.1486,-126 1135.1486,-122 1057.8514,-122 1057.8514,-86 1162.1486,-86 1162.1486,-122"/>
<text text-anchor="middle" x="1110" y="-99.8" font-family="Times,serif" font-size="14.00" fill="#000000">ProjectsModule</text>
</g>
<!-- ProjectsModule&#45;&gt;AppModule -->
<g id="edge5" class="edge">
<title>ProjectsModule&#45;&gt;AppModule</title>
<path fill="none" stroke="#000000" d="M1110,-122.2396C1110,-137.5706 1110,-157 1110,-157 1110,-157 990.8313,-157 990.8313,-157"/>
<polygon fill="#000000" stroke="#000000" points="990.8313,-153.5001 980.8313,-157 990.8313,-160.5001 990.8313,-153.5001"/>
</g>
<!-- TeamModule -->
<g id="node7" class="node">
<title>TeamModule</title>
<polygon fill="#8dd3c7" stroke="#000000" points="1039.9232,-122 1036.9232,-126 1015.9232,-126 1012.9232,-122 948.0768,-122 948.0768,-86 1039.9232,-86 1039.9232,-122"/>
<text text-anchor="middle" x="994" y="-99.8" font-family="Times,serif" font-size="14.00" fill="#000000">TeamModule</text>
</g>
<!-- TeamModule&#45;&gt;AppModule -->
<g id="edge6" class="edge">
<title>TeamModule&#45;&gt;AppModule</title>
<path fill="none" stroke="#000000" d="M964.5586,-122.1061C964.5586,-122.1061 964.5586,-140.991 964.5586,-140.991"/>
<polygon fill="#000000" stroke="#000000" points="961.0586,-140.9909 964.5586,-150.991 968.0586,-140.991 961.0586,-140.9909"/>
</g>
<!-- UsersModule -->
<g id="node8" class="node">
<title>UsersModule</title>
<polygon fill="#8dd3c7" stroke="#000000" points="930.9218,-122 927.9218,-126 906.9218,-126 903.9218,-122 839.0782,-122 839.0782,-86 930.9218,-86 930.9218,-122"/>
<text text-anchor="middle" x="885" y="-99.8" font-family="Times,serif" font-size="14.00" fill="#000000">UsersModule</text>
</g>
<!-- UsersModule&#45;&gt;AppModule -->
<g id="edge7" class="edge">
<title>UsersModule&#45;&gt;AppModule</title>
<path fill="none" stroke="#000000" d="M913.9411,-122.1061C913.9411,-122.1061 913.9411,-140.991 913.9411,-140.991"/>
<polygon fill="#000000" stroke="#000000" points="910.4412,-140.9909 913.9411,-150.991 917.4412,-140.991 910.4412,-140.9909"/>
</g>
<!-- AuthenticationService -->
<g id="node10" class="node">
<title>AuthenticationService</title>
<ellipse fill="#fdb462" stroke="#000000" cx="718" cy="-104" rx="97.2683" ry="18"/>
<text text-anchor="middle" x="718" y="-99.8" font-family="Times,serif" font-size="14.00" fill="#000000">AuthenticationService</text>
</g>
<!-- AuthenticationService&#45;&gt;AppModule -->
<g id="edge9" class="edge">
<title>AuthenticationService&#45;&gt;AppModule</title>
<path fill="none" stroke="#000000" d="M718,-122.2396C718,-137.5706 718,-157 718,-157 718,-157 887.1718,-157 887.1718,-157"/>
<polygon fill="#000000" stroke="#000000" points="887.1718,-160.5001 897.1718,-157 887.1717,-153.5001 887.1718,-160.5001"/>
</g>
<!-- AuthGuard -->
<g id="node11" class="node">
<title>AuthGuard</title>
<ellipse fill="#fdb462" stroke="#000000" cx="548" cy="-104" rx="54.4566" ry="18"/>
<text text-anchor="middle" x="548" y="-99.8" font-family="Times,serif" font-size="14.00" fill="#000000">AuthGuard</text>
</g>
<!-- AuthGuard&#45;&gt;AppModule -->
<g id="edge10" class="edge">
<title>AuthGuard&#45;&gt;AppModule</title>
<path fill="none" stroke="#000000" d="M548,-122.0225C548,-139.3734 548,-163 548,-163 548,-163 887.1562,-163 887.1562,-163"/>
<polygon fill="#000000" stroke="#000000" points="887.1562,-166.5001 897.1562,-163 887.1561,-159.5001 887.1562,-166.5001"/>
</g>
<!-- AdminAuthGuard -->
<g id="node12" class="node">
<title>AdminAuthGuard</title>
<ellipse fill="#fdb462" stroke="#000000" cx="394" cy="-104" rx="81.1052" ry="18"/>
<text text-anchor="middle" x="394" y="-99.8" font-family="Times,serif" font-size="14.00" fill="#000000">AdminAuthGuard</text>
</g>
<!-- AdminAuthGuard&#45;&gt;AppModule -->
<g id="edge11" class="edge">
<title>AdminAuthGuard&#45;&gt;AppModule</title>
<path fill="none" stroke="#000000" d="M394,-122.1061C394,-141.3391 394,-169 394,-169 394,-169 887.1397,-169 887.1397,-169"/>
<polygon fill="#000000" stroke="#000000" points="887.1397,-172.5001 897.1397,-169 887.1397,-165.5001 887.1397,-172.5001"/>
</g>
<!-- UserService -->
<g id="node13" class="node">
<title>UserService</title>
<ellipse fill="#fdb462" stroke="#000000" cx="236" cy="-104" rx="58.4415" ry="18"/>
<text text-anchor="middle" x="236" y="-99.8" font-family="Times,serif" font-size="14.00" fill="#000000">UserService</text>
</g>
<!-- UserService&#45;&gt;AppModule -->
<g id="edge12" class="edge">
<title>UserService&#45;&gt;AppModule</title>
<path fill="none" stroke="#000000" d="M236,-122.2843C236,-143.3211 236,-175 236,-175 236,-175 887.1294,-175 887.1294,-175"/>
<polygon fill="#000000" stroke="#000000" points="887.1295,-178.5001 897.1294,-175 887.1294,-171.5001 887.1295,-178.5001"/>
</g>
<!-- EventManager -->
<g id="node14" class="node">
<title>EventManager</title>
<ellipse fill="#fdb462" stroke="#000000" cx="92" cy="-104" rx="67.7586" ry="18"/>
<text text-anchor="middle" x="92" y="-99.8" font-family="Times,serif" font-size="14.00" fill="#000000">EventManager</text>
</g>
<!-- EventManager&#45;&gt;AppModule -->
<g id="edge13" class="edge">
<title>EventManager&#45;&gt;AppModule</title>
<path fill="none" stroke="#000000" d="M92,-122.2479C92,-145.0179 92,-181 92,-181 92,-181 887.286,-181 887.286,-181"/>
<polygon fill="#000000" stroke="#000000" points="887.2861,-184.5001 897.286,-181 887.286,-177.5001 887.2861,-184.5001"/>
</g>
</g>
</svg>
