<?xml version="1.0" encoding="UTF-8" standalone="no"?>
<!DOCTYPE svg PUBLIC "-//W3C//DTD SVG 1.1//EN"
 "http://www.w3.org/Graphics/SVG/1.1/DTD/svg11.dtd">
<!-- Generated by graphviz version 2.40.1 (20161225.0304)
 -->
<!-- Title: dependencies Pages: 1 -->
<svg width="1428pt" height="211pt"
 viewBox="0.00 0.00 1428.00 211.00" xmlns="http://www.w3.org/2000/svg" xmlns:xlink="http://www.w3.org/1999/xlink">
<g id="graph0" class="graph" transform="scale(1 1) rotate(0) translate(4 207)">
<title>dependencies</title>
<polygon fill="#ffffff" stroke="transparent" points="-4,4 -4,-207 1424,-207 1424,4 -4,4"/>
<text text-anchor="start" x="689.0091" y="-42.4" font-family="sans-serif" font-weight="bold" font-size="14.00" fill="#000000">Legend</text>
<polygon fill="#ffffb3" stroke="transparent" points="476,-10 476,-30 496,-30 496,-10 476,-10"/>
<text text-anchor="start" x="499.629" y="-15.4" font-family="sans-serif" font-size="14.00" fill="#000000"> &#160;Declarations</text>
<polygon fill="#8dd3c7" stroke="transparent" points="589,-10 589,-30 609,-30 609,-10 589,-10"/>
<text text-anchor="start" x="612.7251" y="-15.4" font-family="sans-serif" font-size="14.00" fill="#000000"> &#160;Module</text>
<polygon fill="#80b1d3" stroke="transparent" points="675,-10 675,-30 695,-30 695,-10 675,-10"/>
<text text-anchor="start" x="698.7812" y="-15.4" font-family="sans-serif" font-size="14.00" fill="#000000"> &#160;Bootstrap</text>
<polygon fill="#fdb462" stroke="transparent" points="772,-10 772,-30 792,-30 792,-10 772,-10"/>
<text text-anchor="start" x="795.6732" y="-15.4" font-family="sans-serif" font-size="14.00" fill="#000000"> &#160;Providers</text>
<polygon fill="#fb8072" stroke="transparent" points="868,-10 868,-30 888,-30 888,-10 868,-10"/>
<text text-anchor="start" x="891.7258" y="-15.4" font-family="sans-serif" font-size="14.00" fill="#000000"> &#160;Exports</text>
<g id="clust1" class="cluster">
<title>cluster_ProjectsModule</title>
<polygon fill="none" stroke="#000000" stroke-dasharray="1,5" points="8,-70 8,-195 1412,-195 1412,-70 8,-70"/>
</g>
<g id="clust2" class="cluster">
<title>cluster_ProjectsModule_declarations</title>
<polygon fill="none" stroke="#000000" points="182,-78 182,-130 1404,-130 1404,-78 182,-78"/>
</g>
<g id="clust13" class="cluster">
<title>cluster_ProjectsModule_providers</title>
<polygon fill="none" stroke="#000000" points="16,-78 16,-130 174,-130 174,-78 16,-78"/>
</g>
<!-- ProjectsComponent -->
<g id="node1" class="node">
<title>ProjectsComponent</title>
<polygon fill="#ffffb3" stroke="#000000" points="1396.4313,-122 1269.5687,-122 1269.5687,-86 1396.4313,-86 1396.4313,-122"/>
<text text-anchor="middle" x="1333" y="-99.8" font-family="Times,serif" font-size="14.00" fill="#000000">ProjectsComponent</text>
</g>
<!-- ProjectsModule -->
<g id="node8" class="node">
<title>ProjectsModule</title>
<polygon fill="#8dd3c7" stroke="#000000" points="796.1486,-187 793.1486,-191 772.1486,-191 769.1486,-187 691.8514,-187 691.8514,-151 796.1486,-151 796.1486,-187"/>
<text text-anchor="middle" x="744" y="-164.8" font-family="Times,serif" font-size="14.00" fill="#000000">ProjectsModule</text>
</g>
<!-- ProjectsComponent&#45;&gt;ProjectsModule -->
<g id="edge1" class="edge">
<title>ProjectsComponent&#45;&gt;ProjectsModule</title>
<path fill="none" stroke="#000000" d="M1333,-122.2921C1333,-144.2057 1333,-178 1333,-178 1333,-178 806.2698,-178 806.2698,-178"/>
<polygon fill="#000000" stroke="#000000" points="806.2699,-174.5001 796.2698,-178 806.2698,-181.5001 806.2699,-174.5001"/>
</g>
<!-- ProjectsNewComponent -->
<g id="node2" class="node">
<title>ProjectsNewComponent</title>
<polygon fill="#ffffb3" stroke="#000000" points="1251.3585,-122 1098.6415,-122 1098.6415,-86 1251.3585,-86 1251.3585,-122"/>
<text text-anchor="middle" x="1175" y="-99.8" font-family="Times,serif" font-size="14.00" fill="#000000">ProjectsNewComponent</text>
</g>
<!-- ProjectsNewComponent&#45;&gt;ProjectsModule -->
<g id="edge2" class="edge">
<title>ProjectsNewComponent&#45;&gt;ProjectsModule</title>
<path fill="none" stroke="#000000" d="M1175,-122.1061C1175,-141.3391 1175,-169 1175,-169 1175,-169 806.4182,-169 806.4182,-169"/>
<polygon fill="#000000" stroke="#000000" points="806.4182,-165.5001 796.4182,-169 806.4181,-172.5001 806.4182,-165.5001"/>
</g>
<!-- ProjectsDetailComponent -->
<g id="node3" class="node">
<title>ProjectsDetailComponent</title>
<polygon fill="#ffffb3" stroke="#000000" points="1080.1386,-122 919.8614,-122 919.8614,-86 1080.1386,-86 1080.1386,-122"/>
<text text-anchor="middle" x="1000" y="-99.8" font-family="Times,serif" font-size="14.00" fill="#000000">ProjectsDetailComponent</text>
</g>
<!-- ProjectsDetailComponent&#45;&gt;ProjectsModule -->
<g id="edge3" class="edge">
<title>ProjectsDetailComponent&#45;&gt;ProjectsModule</title>
<path fill="none" stroke="#000000" d="M1000,-122.027C1000,-138.3976 1000,-160 1000,-160 1000,-160 806.4232,-160 806.4232,-160"/>
<polygon fill="#000000" stroke="#000000" points="806.4232,-156.5001 796.4232,-160 806.4231,-163.5001 806.4232,-156.5001"/>
</g>
<!-- ProjectsListComponent -->
<g id="node4" class="node">
<title>ProjectsListComponent</title>
<polygon fill="#ffffb3" stroke="#000000" points="902.2091,-122 753.7909,-122 753.7909,-86 902.2091,-86 902.2091,-122"/>
<text text-anchor="middle" x="828" y="-99.8" font-family="Times,serif" font-size="14.00" fill="#000000">ProjectsListComponent</text>
</g>
<!-- ProjectsListComponent&#45;&gt;ProjectsModule -->
<g id="edge4" class="edge">
<title>ProjectsListComponent&#45;&gt;ProjectsModule</title>
<path fill="none" stroke="#000000" d="M775.1098,-122.1061C775.1098,-122.1061 775.1098,-140.991 775.1098,-140.991"/>
<polygon fill="#000000" stroke="#000000" points="771.6098,-140.9909 775.1098,-150.991 778.6098,-140.991 771.6098,-140.9909"/>
</g>
<!-- ProjectsEditComponent -->
<g id="node5" class="node">
<title>ProjectsEditComponent</title>
<polygon fill="#ffffb3" stroke="#000000" points="735.7646,-122 586.2354,-122 586.2354,-86 735.7646,-86 735.7646,-122"/>
<text text-anchor="middle" x="661" y="-99.8" font-family="Times,serif" font-size="14.00" fill="#000000">ProjectsEditComponent</text>
</g>
<!-- ProjectsEditComponent&#45;&gt;ProjectsModule -->
<g id="edge5" class="edge">
<title>ProjectsEditComponent&#45;&gt;ProjectsModule</title>
<path fill="none" stroke="#000000" d="M713.7791,-122.1061C713.7791,-122.1061 713.7791,-140.991 713.7791,-140.991"/>
<polygon fill="#000000" stroke="#000000" points="710.2792,-140.9909 713.7791,-150.991 717.2792,-140.991 710.2792,-140.9909"/>
</g>
<!-- ProjectsActivateComponent -->
<g id="node6" class="node">
<title>ProjectsActivateComponent</title>
<polygon fill="#ffffb3" stroke="#000000" points="567.8529,-122 394.1471,-122 394.1471,-86 567.8529,-86 567.8529,-122"/>
<text text-anchor="middle" x="481" y="-99.8" font-family="Times,serif" font-size="14.00" fill="#000000">ProjectsActivateComponent</text>
</g>
<!-- ProjectsActivateComponent&#45;&gt;ProjectsModule -->
<g id="edge6" class="edge">
<title>ProjectsActivateComponent&#45;&gt;ProjectsModule</title>
<path fill="none" stroke="#000000" d="M481,-122.027C481,-138.3976 481,-160 481,-160 481,-160 681.7252,-160 681.7252,-160"/>
<polygon fill="#000000" stroke="#000000" points="681.7253,-163.5001 691.7252,-160 681.7252,-156.5001 681.7253,-163.5001"/>
</g>
<!-- ProjectsDeactivateComponent -->
<g id="node7" class="node">
<title>ProjectsDeactivateComponent</title>
<polygon fill="#ffffb3" stroke="#000000" points="376.2822,-122 189.7178,-122 189.7178,-86 376.2822,-86 376.2822,-122"/>
<text text-anchor="middle" x="283" y="-99.8" font-family="Times,serif" font-size="14.00" fill="#000000">ProjectsDeactivateComponent</text>
</g>
<!-- ProjectsDeactivateComponent&#45;&gt;ProjectsModule -->
<g id="edge7" class="edge">
<title>ProjectsDeactivateComponent&#45;&gt;ProjectsModule</title>
<path fill="none" stroke="#000000" d="M283,-122.1061C283,-141.3391 283,-169 283,-169 283,-169 681.5663,-169 681.5663,-169"/>
<polygon fill="#000000" stroke="#000000" points="681.5663,-172.5001 691.5663,-169 681.5662,-165.5001 681.5663,-172.5001"/>
</g>
<!-- ProjectsService -->
<g id="node9" class="node">
<title>ProjectsService</title>
<ellipse fill="#fdb462" stroke="#000000" cx="95" cy="-104" rx="71.1998" ry="18"/>
<text text-anchor="middle" x="95" y="-99.8" font-family="Times,serif" font-size="14.00" fill="#000000">ProjectsService</text>
</g>
<!-- ProjectsService&#45;&gt;ProjectsModule -->
<g id="edge8" class="edge">
<title>ProjectsService&#45;&gt;ProjectsModule</title>
<path fill="none" stroke="#000000" d="M95,-122.2921C95,-144.2057 95,-178 95,-178 95,-178 681.7133,-178 681.7133,-178"/>
<polygon fill="#000000" stroke="#000000" points="681.7134,-181.5001 691.7133,-178 681.7133,-174.5001 681.7134,-181.5001"/>
</g>
</g>
</svg>
