<?xml version="1.0" encoding="UTF-8" standalone="no"?>
<!DOCTYPE svg PUBLIC "-//W3C//DTD SVG 1.1//EN"
 "http://www.w3.org/Graphics/SVG/1.1/DTD/svg11.dtd">
<!-- Generated by graphviz version 2.40.1 (20161225.0304)
 -->
<!-- Title: dependencies Pages: 1 -->
<svg width="1124pt" height="211pt"
 viewBox="0.00 0.00 1124.00 211.00" xmlns="http://www.w3.org/2000/svg" xmlns:xlink="http://www.w3.org/1999/xlink">
<g id="graph0" class="graph" transform="scale(1 1) rotate(0) translate(4 207)">
<title>dependencies</title>
<polygon fill="#ffffff" stroke="transparent" points="-4,4 -4,-207 1120,-207 1120,4 -4,4"/>
<text text-anchor="start" x="537.0091" y="-42.4" font-family="sans-serif" font-weight="bold" font-size="14.00" fill="#000000">Legend</text>
<polygon fill="#ffffb3" stroke="transparent" points="324,-10 324,-30 344,-30 344,-10 324,-10"/>
<text text-anchor="start" x="347.629" y="-15.4" font-family="sans-serif" font-size="14.00" fill="#000000"> &#160;Declarations</text>
<polygon fill="#8dd3c7" stroke="transparent" points="437,-10 437,-30 457,-30 457,-10 437,-10"/>
<text text-anchor="start" x="460.7251" y="-15.4" font-family="sans-serif" font-size="14.00" fill="#000000"> &#160;Module</text>
<polygon fill="#80b1d3" stroke="transparent" points="523,-10 523,-30 543,-30 543,-10 523,-10"/>
<text text-anchor="start" x="546.7812" y="-15.4" font-family="sans-serif" font-size="14.00" fill="#000000"> &#160;Bootstrap</text>
<polygon fill="#fdb462" stroke="transparent" points="620,-10 620,-30 640,-30 640,-10 620,-10"/>
<text text-anchor="start" x="643.6732" y="-15.4" font-family="sans-serif" font-size="14.00" fill="#000000"> &#160;Providers</text>
<polygon fill="#fb8072" stroke="transparent" points="716,-10 716,-30 736,-30 736,-10 716,-10"/>
<text text-anchor="start" x="739.7258" y="-15.4" font-family="sans-serif" font-size="14.00" fill="#000000"> &#160;Exports</text>
<g id="clust1" class="cluster">
<title>cluster_BlogModule</title>
<polygon fill="none" stroke="#000000" stroke-dasharray="1,5" points="8,-70 8,-195 1108,-195 1108,-70 8,-70"/>
</g>
<g id="clust2" class="cluster">
<title>cluster_BlogModule_declarations</title>
<polygon fill="none" stroke="#000000" points="158,-78 158,-130 1100,-130 1100,-78 158,-78"/>
</g>
<g id="clust12" class="cluster">
<title>cluster_BlogModule_providers</title>
<polygon fill="none" stroke="#000000" points="16,-78 16,-130 150,-130 150,-78 16,-78"/>
</g>
<!-- BlogComponent -->
<g id="node1" class="node">
<title>BlogComponent</title>
<polygon fill="#ffffb3" stroke="#000000" points="1092.0605,-122 983.9395,-122 983.9395,-86 1092.0605,-86 1092.0605,-122"/>
<text text-anchor="middle" x="1038" y="-99.8" font-family="Times,serif" font-size="14.00" fill="#000000">BlogComponent</text>
</g>
<!-- BlogModule -->
<g id="node7" class="node">
<title>BlogModule</title>
<polygon fill="#8dd3c7" stroke="#000000" points="631.2773,-187 628.2773,-191 607.2773,-191 604.2773,-187 544.7227,-187 544.7227,-151 631.2773,-151 631.2773,-187"/>
<text text-anchor="middle" x="588" y="-164.8" font-family="Times,serif" font-size="14.00" fill="#000000">BlogModule</text>
</g>
<!-- BlogComponent&#45;&gt;BlogModule -->
<g id="edge1" class="edge">
<title>BlogComponent&#45;&gt;BlogModule</title>
<path fill="none" stroke="#000000" d="M1038,-122.2921C1038,-144.2057 1038,-178 1038,-178 1038,-178 641.5568,-178 641.5568,-178"/>
<polygon fill="#000000" stroke="#000000" points="641.5568,-174.5001 631.5568,-178 641.5567,-181.5001 641.5568,-174.5001"/>
</g>
<!-- BlogDetailComponent -->
<g id="node2" class="node">
<title>BlogDetailComponent</title>
<polygon fill="#ffffb3" stroke="#000000" points="965.2674,-122 822.7326,-122 822.7326,-86 965.2674,-86 965.2674,-122"/>
<text text-anchor="middle" x="894" y="-99.8" font-family="Times,serif" font-size="14.00" fill="#000000">BlogDetailComponent</text>
</g>
<!-- BlogDetailComponent&#45;&gt;BlogModule -->
<g id="edge2" class="edge">
<title>BlogDetailComponent&#45;&gt;BlogModule</title>
<path fill="none" stroke="#000000" d="M894,-122.1061C894,-141.3391 894,-169 894,-169 894,-169 641.5174,-169 641.5174,-169"/>
<polygon fill="#000000" stroke="#000000" points="641.5174,-165.5001 631.5174,-169 641.5173,-172.5001 641.5174,-165.5001"/>
</g>
<!-- BlogListComponent -->
<g id="node3" class="node">
<title>BlogListComponent</title>
<polygon fill="#ffffb3" stroke="#000000" points="804.3384,-122 673.6616,-122 673.6616,-86 804.3384,-86 804.3384,-122"/>
<text text-anchor="middle" x="739" y="-99.8" font-family="Times,serif" font-size="14.00" fill="#000000">BlogListComponent</text>
</g>
<!-- BlogListComponent&#45;&gt;BlogModule -->
<g id="edge3" class="edge">
<title>BlogListComponent&#45;&gt;BlogModule</title>
<path fill="none" stroke="#000000" d="M739,-122.027C739,-138.3976 739,-160 739,-160 739,-160 641.6755,-160 641.6755,-160"/>
<polygon fill="#000000" stroke="#000000" points="641.6755,-156.5001 631.6755,-160 641.6754,-163.5001 641.6755,-156.5001"/>
</g>
<!-- BlogNewComponent -->
<g id="node4" class="node">
<title>BlogNewComponent</title>
<polygon fill="#ffffb3" stroke="#000000" points="655.4874,-122 520.5126,-122 520.5126,-86 655.4874,-86 655.4874,-122"/>
<text text-anchor="middle" x="588" y="-99.8" font-family="Times,serif" font-size="14.00" fill="#000000">BlogNewComponent</text>
</g>
<!-- BlogNewComponent&#45;&gt;BlogModule -->
<g id="edge4" class="edge">
<title>BlogNewComponent&#45;&gt;BlogModule</title>
<path fill="none" stroke="#000000" d="M588,-122.1061C588,-122.1061 588,-140.991 588,-140.991"/>
<polygon fill="#000000" stroke="#000000" points="584.5001,-140.9909 588,-150.991 591.5001,-140.991 584.5001,-140.9909"/>
</g>
<!-- BlogPublishComponent -->
<g id="node5" class="node">
<title>BlogPublishComponent</title>
<polygon fill="#ffffb3" stroke="#000000" points="502.0686,-122 351.9314,-122 351.9314,-86 502.0686,-86 502.0686,-122"/>
<text text-anchor="middle" x="427" y="-99.8" font-family="Times,serif" font-size="14.00" fill="#000000">BlogPublishComponent</text>
</g>
<!-- BlogPublishComponent&#45;&gt;BlogModule -->
<g id="edge5" class="edge">
<title>BlogPublishComponent&#45;&gt;BlogModule</title>
<path fill="none" stroke="#000000" d="M427,-122.027C427,-138.3976 427,-160 427,-160 427,-160 534.4311,-160 534.4311,-160"/>
<polygon fill="#000000" stroke="#000000" points="534.4311,-163.5001 544.4311,-160 534.431,-156.5001 534.4311,-163.5001"/>
</g>
<!-- BlogUnPublishComponent -->
<g id="node6" class="node">
<title>BlogUnPublishComponent</title>
<polygon fill="#ffffb3" stroke="#000000" points="333.6749,-122 166.3251,-122 166.3251,-86 333.6749,-86 333.6749,-122"/>
<text text-anchor="middle" x="250" y="-99.8" font-family="Times,serif" font-size="14.00" fill="#000000">BlogUnPublishComponent</text>
</g>
<!-- BlogUnPublishComponent&#45;&gt;BlogModule -->
<g id="edge6" class="edge">
<title>BlogUnPublishComponent&#45;&gt;BlogModule</title>
<path fill="none" stroke="#000000" d="M250,-122.1061C250,-141.3391 250,-169 250,-169 250,-169 534.5044,-169 534.5044,-169"/>
<polygon fill="#000000" stroke="#000000" points="534.5044,-172.5001 544.5044,-169 534.5043,-165.5001 534.5044,-172.5001"/>
</g>
<!-- BlogService -->
<g id="node8" class="node">
<title>BlogService</title>
<ellipse fill="#fdb462" stroke="#000000" cx="83" cy="-104" rx="58.5463" ry="18"/>
<text text-anchor="middle" x="83" y="-99.8" font-family="Times,serif" font-size="14.00" fill="#000000">BlogService</text>
</g>
<!-- BlogService&#45;&gt;BlogModule -->
<g id="edge7" class="edge">
<title>BlogService&#45;&gt;BlogModule</title>
<path fill="none" stroke="#000000" d="M83,-122.2921C83,-144.2057 83,-178 83,-178 83,-178 534.5069,-178 534.5069,-178"/>
<polygon fill="#000000" stroke="#000000" points="534.5069,-181.5001 544.5069,-178 534.5069,-174.5001 534.5069,-181.5001"/>
</g>
</g>
</svg>
